<svg width="60" height="76" viewBox="0 0 60 76" fill="none" xmlns="http://www.w3.org/2000/svg">
<path d="M37.1859 9.56205H36.8535C34.0476 8.82049 31.4419 7.46381 29.2253 5.59043C28.977 5.35842 28.8311 5.03729 28.8196 4.69769C28.8081 4.3581 28.932 4.0279 29.164 3.77965C29.396 3.53139 29.7172 3.38545 30.0568 3.37396C30.3964 3.36248 30.7266 3.48639 30.9749 3.7184C32.8804 5.31266 35.1149 6.46575 37.5183 7.09511C37.8105 7.18128 38.0623 7.36902 38.2282 7.62451C38.3941 7.87999 38.4633 8.18638 38.4231 8.48836C38.383 8.79034 38.2363 9.06802 38.0094 9.27132C37.7825 9.47462 37.4905 9.59014 37.1859 9.59702V9.56205Z" fill="#38BCEA"/>
<path d="M40.2299 45.1138H19.9171C16.9019 45.0993 13.9918 44.0037 11.7155 42.0261C9.43933 40.0485 7.94803 37.32 7.51252 34.3363L5.55298 20.5844C5.06498 17.4027 5.37765 14.1496 6.46275 11.1191C7.50218 7.98109 9.48157 5.2387 12.1325 3.26381C14.7834 1.28892 17.9776 0.177097 21.2818 0.0791626C24.4348 0.0953465 27.5 1.11915 30.0298 3.00101C32.5579 1.11584 35.6242 0.0916601 38.7778 0.0791626C42.1057 0.164347 45.3256 1.27821 47.9949 3.2676C50.6641 5.257 52.6516 8.02428 53.6843 11.1891C54.7694 14.2196 55.0821 17.4727 54.5941 20.6544L52.6346 34.4062C52.1839 37.3772 50.6859 40.0891 48.4112 42.0526C46.1365 44.0161 43.2348 45.1019 40.2299 45.1138ZM21.3343 2.63356C18.5504 2.73588 15.8649 3.68998 13.6403 5.36698C11.4158 7.04398 9.75938 9.36316 8.89471 12.0114C7.96574 14.6476 7.70716 17.4735 8.14235 20.2345L10.0844 33.9863C10.4357 36.3609 11.6258 38.531 13.4392 40.1037C15.2526 41.6764 17.5693 42.5475 19.9696 42.5593H40.2299C42.6303 42.5475 44.947 41.6764 46.7604 40.1037C48.5738 38.531 49.7639 36.3609 50.1152 33.9863L52.0572 20.2345C52.4924 17.4735 52.2339 14.6476 51.3049 12.0114C50.4392 9.36044 48.7801 7.03932 46.5521 5.36207C44.3241 3.68482 41.6348 2.73236 38.8478 2.63356C35.9363 2.6514 33.1265 3.70589 30.9221 5.60789C30.689 5.79533 30.3989 5.8975 30.0998 5.8975C29.8007 5.8975 29.5106 5.79533 29.2775 5.60789C27.0686 3.702 24.2518 2.64724 21.3343 2.63356Z" fill="#38BCEA"/>
<path d="M30.0995 75.6268C29.8125 75.6268 29.5338 75.5301 29.3085 75.3524C29.0831 75.1746 28.9241 74.9261 28.8573 74.647C28.7831 74.3179 28.8404 73.9728 29.0168 73.6852C29.1933 73.3977 29.475 73.1903 29.8021 73.1074L30.9393 72.8449L19.9169 72.425C19.6075 72.4137 19.3127 72.2904 19.0874 72.078C18.8621 71.8656 18.7216 71.5785 18.6922 71.2703C18.6701 70.9641 18.756 70.66 18.935 70.4106C19.114 70.1613 19.3748 69.9826 19.6719 69.9056L30.9393 67.1763L19.9344 66.7213C19.6261 66.7064 19.3333 66.5819 19.1088 66.3702C18.8842 66.1585 18.7427 65.8735 18.7097 65.5666C18.6803 65.2591 18.7634 64.9514 18.9436 64.7005C19.1237 64.4496 19.3887 64.2725 19.6894 64.2019L30.9219 61.5426L19.9169 61.0876C19.6184 61.0635 19.3379 60.9353 19.1244 60.7253C18.9109 60.5154 18.778 60.2371 18.7488 59.939C18.7196 59.641 18.7961 59.3423 18.9648 59.0949C19.1336 58.8475 19.3838 58.6673 19.6719 58.5857L30.9219 55.9264L19.9169 55.4715C19.6081 55.4598 19.3139 55.3366 19.089 55.1246C18.8641 54.9127 18.7237 54.6263 18.6938 54.3187C18.6639 54.0112 18.7466 53.7032 18.9264 53.4519C19.1063 53.2005 19.3711 53.023 19.6719 52.952L30.9043 50.2927L19.8994 49.8378C19.5818 49.8426 19.2741 49.7272 19.0379 49.5148C18.8018 49.3024 18.6545 49.0086 18.6258 48.6923C18.597 48.3759 18.6888 48.0604 18.8828 47.8089C19.0768 47.5573 19.3586 47.3884 19.6719 47.3359L39.9323 42.6819C40.0989 42.6335 40.2738 42.6196 40.446 42.641C40.6183 42.6624 40.7843 42.7186 40.9341 42.8063C41.0839 42.8941 41.2142 43.0114 41.3171 43.1512C41.42 43.291 41.4933 43.4502 41.5326 43.6193C41.5719 43.7884 41.5763 43.9637 41.5456 44.1345C41.5149 44.3053 41.4497 44.4681 41.3539 44.6129C41.2582 44.7577 41.1339 44.8814 40.9888 44.9766C40.8436 45.0717 40.6806 45.1363 40.5096 45.1664L29.2772 47.8257L40.2822 48.2806C40.5901 48.2877 40.8846 48.4074 41.1103 48.6169C41.3359 48.8265 41.477 49.1114 41.5069 49.4179C41.5362 49.7254 41.4531 50.0331 41.273 50.284C41.0928 50.5349 40.8278 50.712 40.5271 50.7826L29.2947 53.4419L40.2997 53.8968C40.6073 53.912 40.8991 54.0378 41.1213 54.2512C41.3435 54.4645 41.4811 54.7509 41.5088 55.0577C41.5365 55.3644 41.4524 55.6708 41.272 55.9205C41.0916 56.1702 40.8271 56.3462 40.5271 56.4163L29.2947 59.0756L40.2997 59.513C40.6068 59.5314 40.8977 59.6571 41.1216 59.8681C41.3455 60.0792 41.488 60.3622 41.5244 60.6678C41.5537 60.9752 41.4706 61.2829 41.2904 61.5339C41.1103 61.7848 40.8454 61.9619 40.5446 62.0324L29.2947 64.6918L40.2997 65.1467C40.6085 65.1584 40.9026 65.2816 41.1275 65.4936C41.3524 65.7055 41.4928 65.9918 41.5227 66.2994C41.5527 66.607 41.47 66.915 41.2902 67.1663C41.1103 67.4176 40.8454 67.5952 40.5446 67.6661L29.3122 70.308L40.3172 70.7629C40.6235 70.7783 40.9141 70.9035 41.1358 71.1156C41.3574 71.3276 41.4954 71.6123 41.5244 71.9176C41.5583 72.2234 41.4791 72.531 41.3019 72.7823C41.1246 73.0337 40.8614 73.2116 40.5621 73.2823L30.4145 75.5918C30.3123 75.6218 30.2058 75.6336 30.0995 75.6268Z" fill="#38BCEA"/>
<path d="M48.7156 68.0161C48.5096 68.0184 48.3062 67.9702 48.1232 67.8756C47.9402 67.7811 47.7831 67.6431 47.6658 67.4738C47.4807 67.1983 47.4102 66.8617 47.4689 66.5352C47.5277 66.2086 47.7113 65.9178 47.9808 65.7242L57.3936 59.2681C57.5326 59.1728 57.689 59.1058 57.8539 59.0709C58.0188 59.036 58.189 59.0339 58.3547 59.0647C58.5204 59.0956 58.6785 59.1588 58.8197 59.2507C58.961 59.3427 59.0828 59.4616 59.1782 59.6006C59.2735 59.7396 59.3406 59.896 59.3755 60.0609C59.4104 60.2258 59.4124 60.396 59.3815 60.5617C59.3507 60.7274 59.2875 60.8854 59.1955 61.0267C59.1036 61.168 58.9847 61.2898 58.8457 61.3851L49.4329 67.8236C49.219 67.9594 48.9687 68.0266 48.7156 68.0161Z" fill="#38BCEA"/>
<path d="M48.8208 53.827C48.5495 53.8248 48.2859 53.7363 48.0683 53.5744C47.8507 53.4124 47.6903 53.1853 47.6104 52.9261C47.5305 52.6668 47.5352 52.3888 47.6238 52.1324C47.7125 51.876 47.8805 51.6545 48.1034 51.5L57.5163 45.044C57.653 44.9301 57.812 44.8461 57.9831 44.7972C58.1543 44.7484 58.3337 44.7358 58.5099 44.7604C58.6862 44.7849 58.8553 44.846 59.0066 44.9398C59.1578 45.0335 59.2879 45.1579 59.3882 45.3048C59.4886 45.4517 59.5572 45.618 59.5896 45.793C59.622 45.9679 59.6174 46.1477 59.5762 46.3209C59.5351 46.494 59.4582 46.6566 59.3505 46.7982C59.2428 46.9399 59.1067 47.0575 58.951 47.1435L49.5556 53.5995C49.3404 53.7501 49.0834 53.8296 48.8208 53.827Z" fill="#38BCEA"/>
<path d="M11.5016 68.0161C11.2447 68.0163 10.9941 67.9368 10.7842 67.7887L1.38891 61.3327C1.11291 61.1447 0.922861 60.8548 0.860526 60.5267C0.798191 60.1986 0.868664 59.8592 1.05648 59.5831C1.24743 59.3108 1.53706 59.1237 1.86379 59.0616C2.19052 58.9996 2.52857 59.0674 2.80608 59.2507L12.2189 65.7067C12.4876 65.9004 12.6719 66.1897 12.7337 66.5152C12.7956 66.8407 12.7303 67.1775 12.5513 67.4563C12.4328 67.6257 12.276 67.7647 12.0935 67.862C11.9111 67.9593 11.7083 68.0121 11.5016 68.0161Z" fill="#38BCEA"/>
<path d="M11.3967 53.8269C11.1395 53.8295 10.8882 53.7498 10.6794 53.5995L1.26655 47.1434C0.994257 46.9525 0.807188 46.6629 0.74511 46.3361C0.683032 46.0094 0.750836 45.6714 0.934122 45.3939C1.12212 45.1179 1.41202 44.9278 1.7401 44.8655C2.06817 44.8031 2.40759 44.8736 2.68372 45.0614L12.0965 51.5174C12.3195 51.672 12.4875 51.8935 12.5762 52.1499C12.6648 52.4063 12.6696 52.6843 12.5896 52.9435C12.5097 53.2028 12.3493 53.4298 12.1317 53.5918C11.9141 53.7538 11.6505 53.8423 11.3792 53.8444L11.3967 53.8269Z" fill="#38BCEA"/>
</svg>
