<svg width="80" height="47" viewBox="0 0 80 47" fill="none" xmlns="http://www.w3.org/2000/svg">
<path d="M33.6568 21.3895C29.4988 21.3895 26.0938 17.4539 26.0938 12.6114V3.04631C26.0938 2.24759 26.411 1.48159 26.9758 0.916814C27.5406 0.352036 28.3066 0.034729 29.1053 0.034729H38.2255C39.0243 0.034729 39.7903 0.352036 40.355 0.916814C40.9198 1.48159 41.2371 2.24759 41.2371 3.04631V12.6114C41.2371 17.4539 37.832 21.3895 33.6568 21.3895ZM29.1053 2.5672C29.0372 2.56481 28.9694 2.57645 28.9061 2.6014C28.8427 2.62635 28.7851 2.66406 28.737 2.71221C28.6888 2.76036 28.6511 2.81793 28.6262 2.88129C28.6012 2.94466 28.5896 3.01245 28.592 3.08051V12.6456C28.592 16.0679 30.8677 18.9254 33.7253 18.9254C36.5829 18.9254 38.8587 16.1192 38.8587 12.6456V3.04631C38.861 2.97825 38.8494 2.9104 38.8244 2.84704C38.7995 2.78368 38.7617 2.72616 38.7136 2.67801C38.6654 2.62985 38.6079 2.5921 38.5446 2.56715C38.4812 2.54219 38.4133 2.53055 38.3453 2.53294L29.1053 2.5672Z" fill="#38BCEA"/>
<path d="M46.3014 21.3895C42.1263 21.3895 38.7383 17.4539 38.7383 12.6114V3.04631C38.7383 2.25055 39.0532 1.48711 39.6143 0.922819C40.1754 0.358531 40.937 0.0392504 41.7327 0.034729H50.8701C51.6658 0.0392504 52.4275 0.358531 52.9886 0.922819C53.5496 1.48711 53.8645 2.25055 53.8645 3.04631V12.6114C53.8645 17.4539 50.4766 21.3895 46.3014 21.3895ZM41.7327 2.5672C41.6661 2.56716 41.6001 2.58052 41.5388 2.60652C41.4774 2.63252 41.422 2.67062 41.3757 2.71853C41.3293 2.76643 41.2931 2.82317 41.2692 2.88537C41.2453 2.94756 41.2342 3.01392 41.2365 3.08051V12.6456C41.2365 16.0679 43.5123 18.9254 46.3698 18.9254C49.2274 18.9254 51.5032 16.1192 51.5032 12.6456V3.04631C51.5055 2.97972 51.4943 2.91331 51.4704 2.85111C51.4465 2.78892 51.4104 2.73218 51.3641 2.68427C51.3178 2.63637 51.2623 2.59832 51.2009 2.57231C51.1396 2.54631 51.0736 2.5329 51.007 2.53294L41.7327 2.5672Z" fill="#38BCEA"/>
<path d="M58.2795 21.8515C54.4808 21.8515 51.4351 18.2582 51.4351 13.8606V5.30504C51.4396 4.55921 51.739 3.84551 52.268 3.31972C52.797 2.79394 53.5125 2.49883 54.2584 2.49884H62.4546C63.2005 2.49883 63.916 2.79394 64.445 3.31972C64.974 3.84551 65.2734 4.55921 65.278 5.30504V13.8606C65.2095 18.2582 62.0953 21.8515 58.2795 21.8515ZM54.1899 4.92859C54.105 4.93274 54.0247 4.96834 53.9647 5.02844C53.9046 5.08853 53.869 5.16882 53.8648 5.25371V13.8093C53.8648 16.838 55.8497 19.302 58.2795 19.302C60.7093 19.302 62.7113 16.838 62.7113 13.8093V5.25371C62.7071 5.16882 62.6715 5.08853 62.6115 5.02844C62.5514 4.96834 62.4711 4.93274 62.3862 4.92859H54.1899Z" fill="#38BCEA"/>
<path d="M21.6789 21.8515C17.8631 21.8515 14.8345 18.2582 14.8345 13.8606V5.30504C14.839 4.55921 15.1384 3.84551 15.6674 3.31972C16.1964 2.79394 16.912 2.49883 17.6578 2.49884H25.8369C26.5828 2.49883 27.2983 2.79394 27.8273 3.31972C28.3563 3.84551 28.6558 4.55921 28.6603 5.30504V13.8606C28.5919 18.2582 25.4947 21.8515 21.6789 21.8515ZM17.5894 4.92859C17.5032 4.92859 17.4204 4.96287 17.3595 5.02384C17.2985 5.08481 17.2643 5.16748 17.2643 5.25371V13.8093C17.2643 16.838 19.2491 19.302 21.6789 19.302C24.1087 19.302 26.0936 16.838 26.0936 13.8093V5.25371C26.0936 5.16748 26.0594 5.08481 25.9984 5.02384C25.9374 4.96287 25.8547 4.92859 25.7685 4.92859H17.5894Z" fill="#38BCEA"/>
<path d="M38.2255 46.389H29.1053C28.3066 46.389 27.5406 46.0717 26.9758 45.5069C26.411 44.9422 26.0938 44.1762 26.0938 43.3775V33.8123C26.0938 28.9699 29.5159 25.0343 33.6568 25.0343C37.7977 25.0343 41.2371 28.9699 41.2371 33.8123V43.3775C41.2371 43.7729 41.1592 44.1645 41.0078 44.5299C40.8565 44.8953 40.6347 45.2273 40.355 45.5069C40.0754 45.7866 39.7434 46.0084 39.378 46.1598C39.0126 46.3111 38.621 46.389 38.2255 46.389ZM33.6568 27.5668C30.8677 27.5668 28.5235 30.373 28.5235 33.8466V43.4117C28.5211 43.4798 28.5328 43.5476 28.5577 43.6109C28.5827 43.6743 28.6204 43.7319 28.6686 43.78C28.7167 43.8282 28.7742 43.8659 28.8376 43.8908C28.901 43.9158 28.9688 43.9274 29.0369 43.925H38.1571C38.2251 43.9274 38.2929 43.9158 38.3563 43.8908C38.4197 43.8659 38.4772 43.8282 38.5254 43.78C38.5735 43.7319 38.6112 43.6743 38.6362 43.6109C38.6611 43.5476 38.6728 43.4798 38.6704 43.4117V33.8466C38.7388 30.3388 36.4631 27.5326 33.6568 27.5326V27.5668Z" fill="#38BCEA"/>
<path d="M50.8701 46.389H41.7327C40.937 46.3845 40.1754 46.0652 39.6143 45.5009C39.0532 44.9367 38.7383 44.1732 38.7383 43.3775V33.8123C38.7383 28.9699 42.1605 25.0343 46.3014 25.0343C50.4423 25.0343 53.8645 28.9699 53.8645 33.8123V43.3775C53.8645 44.1732 53.5496 44.9367 52.9886 45.5009C52.4275 46.0652 51.6658 46.3845 50.8701 46.389ZM46.3014 27.5668C43.5123 27.5668 41.1681 30.373 41.1681 33.8466V43.4117C41.1658 43.4783 41.1769 43.5447 41.2008 43.6068C41.2247 43.669 41.2609 43.7258 41.3072 43.7737C41.3535 43.8216 41.409 43.8597 41.4704 43.8857C41.5317 43.9117 41.5976 43.9251 41.6643 43.925H50.8017C50.8683 43.9251 50.9342 43.9117 50.9956 43.8857C51.0569 43.8597 51.1124 43.8216 51.1587 43.7737C51.2051 43.7258 51.2412 43.669 51.2651 43.6068C51.289 43.5447 51.3002 43.4783 51.2979 43.4117V33.8466C51.3663 30.3388 49.0905 27.5326 46.3014 27.5326V27.5668Z" fill="#38BCEA"/>
<path d="M62.3858 43.9763H54.1895C53.4407 43.9763 52.7226 43.6789 52.1932 43.1494C51.6637 42.6199 51.3662 41.9018 51.3662 41.153V32.5974C51.3662 28.1999 54.4804 24.6065 58.2107 24.6065C61.9409 24.6065 65.1407 28.1999 65.1407 32.5974V41.153C65.1409 41.8901 64.8529 42.598 64.3381 43.1256C63.8233 43.6531 63.1227 43.9585 62.3858 43.9763ZM58.2791 27.0705C55.8493 27.0705 53.8644 29.5346 53.8644 32.5632V41.1188C53.8643 41.2067 53.898 41.2912 53.9585 41.3549C54.019 41.4186 54.1018 41.4566 54.1895 41.461H62.3858C62.4736 41.4566 62.5563 41.4186 62.6168 41.3549C62.6773 41.2912 62.711 41.2067 62.7109 41.1188V32.5632C62.7109 29.5346 60.726 27.0705 58.2791 27.0705Z" fill="#38BCEA"/>
<path d="M25.7681 43.9763H17.589C16.8402 43.9763 16.122 43.6789 15.5926 43.1494C15.0631 42.6199 14.7656 41.9018 14.7656 41.153V32.5974C14.7656 28.1999 17.8627 24.6065 21.6101 24.6065C25.3574 24.6065 28.4545 28.1999 28.4545 32.5974V41.153C28.4554 41.8787 28.1768 42.5768 27.6766 43.1025C27.1764 43.6282 26.4929 43.9412 25.7681 43.9763ZM21.6785 27.0705C19.2488 27.0705 17.2639 29.5346 17.2639 32.5632V41.1188C17.2616 41.1629 17.2682 41.207 17.2835 41.2485C17.2988 41.2899 17.3224 41.3278 17.3528 41.3598C17.3832 41.3918 17.4199 41.4173 17.4605 41.4347C17.5011 41.4521 17.5448 41.4611 17.589 41.461H25.7681C25.8123 41.4611 25.856 41.4521 25.8966 41.4347C25.9372 41.4173 25.9738 41.3918 26.0043 41.3598C26.0347 41.3278 26.0583 41.2899 26.0736 41.2485C26.0889 41.207 26.0956 41.1629 26.0932 41.1188V32.5632C26.0932 29.5346 24.1083 27.0705 21.6785 27.0705Z" fill="#38BCEA"/>
<path d="M63.9603 41.8202C63.657 41.8124 63.367 41.6945 63.1442 41.4886C62.9215 41.2826 62.7813 41.0026 62.7499 40.7009C62.7185 40.3992 62.7979 40.0963 62.9734 39.8488C63.1489 39.6014 63.4085 39.4263 63.7036 39.3562C67.4411 38.594 70.8005 36.5639 73.2133 33.6095C75.626 30.6551 76.944 26.9578 76.944 23.1434C76.944 19.3289 75.626 15.6316 73.2133 12.6772C70.8005 9.7228 67.4411 7.69272 63.7036 6.93056C63.3888 6.85517 63.1155 6.66051 62.9414 6.38758C62.7673 6.11466 62.706 5.78481 62.7703 5.46754C62.8346 5.15026 63.0197 4.87034 63.2863 4.68681C63.553 4.50327 63.8805 4.43045 64.1999 4.48368C68.5006 5.36183 72.3661 7.69865 75.1422 11.0988C77.9182 14.499 79.4346 18.7538 79.4346 23.1434C79.4346 27.5329 77.9182 31.7877 75.1422 35.1879C72.3661 38.5881 68.5006 40.9249 64.1999 41.8031L63.9603 41.8202Z" fill="#38BCEA"/>
<path d="M63.9601 35.3691C63.7594 35.3672 63.562 35.3181 63.3837 35.226C63.2054 35.1339 63.0512 35.0012 62.9335 34.8387C62.7464 34.5728 62.6719 34.2438 62.7264 33.9232C62.7809 33.6027 62.9599 33.3167 63.2243 33.1276C65.3348 31.6094 66.915 29.4666 67.7417 27.0018C66.7532 25.9671 66.2016 24.5912 66.2016 23.1603C66.2016 21.7294 66.7532 20.3535 67.7417 19.3189C66.915 16.8541 65.3348 14.7113 63.2243 13.1931C62.9599 13.004 62.7809 12.718 62.7264 12.3974C62.6719 12.0769 62.7464 11.7479 62.9335 11.482C63.1254 11.2212 63.411 11.0451 63.7302 10.9908C64.0494 10.9366 64.3773 11.0083 64.6446 11.1911C67.4562 13.2056 69.4725 16.1423 70.3426 19.49C70.4092 19.7529 70.3885 20.0303 70.2835 20.2803C70.1786 20.5304 69.9951 20.7394 69.7608 20.876C69.4178 21.1535 69.1411 21.5042 68.951 21.9024C68.761 22.3006 68.6624 22.7362 68.6624 23.1774C68.6624 23.6187 68.761 24.0543 68.951 24.4525C69.1411 24.8507 69.4178 25.2014 69.7608 25.4789C69.9951 25.6155 70.1786 25.8246 70.2835 26.0746C70.3885 26.3247 70.4092 26.602 70.3426 26.8649C69.4923 30.2264 67.4875 33.182 64.6788 35.2151C64.4594 35.3354 64.2095 35.389 63.9601 35.3691Z" fill="#38BCEA"/>
<path d="M70.3769 28.1142C69.3564 28.2897 68.3066 28.1471 67.3698 27.7057C66.4331 27.2643 65.6547 26.5455 65.1403 25.6468C64.626 24.748 64.4005 23.7128 64.4944 22.6816C64.5884 21.6503 64.9972 20.6729 65.6655 19.8818C66.3337 19.0908 67.2292 18.5245 68.2303 18.2596C69.2313 17.9947 70.2896 18.0442 71.2617 18.4012C72.2337 18.7582 73.0725 19.4055 73.6641 20.2554C74.2558 21.1052 74.5718 22.1165 74.5692 23.152C74.6596 24.3634 74.2711 25.5619 73.4871 26.4898C72.7032 27.4178 71.5864 28.001 70.3769 28.1142ZM70.3769 20.6709C69.47 20.6709 68.6658 21.8002 68.6658 23.152C68.6658 24.5038 69.4358 25.616 70.3769 25.616C71.318 25.616 72.088 24.4867 72.088 23.152C72.088 21.8173 71.3009 20.6709 70.3769 20.6709Z" fill="#38BCEA"/>
<path d="M16.0148 41.8203H15.7581C11.4573 40.9421 7.59193 38.6053 4.81585 35.2051C2.03976 31.8049 0.523438 27.5501 0.523438 23.1605C0.523438 18.771 2.03976 14.5163 4.81585 11.1161C7.59193 7.71586 11.4573 5.379 15.7581 4.50084C16.0826 4.43525 16.4198 4.50115 16.6957 4.68403C16.9717 4.86691 17.1637 5.15181 17.2297 5.47619C17.2645 5.63702 17.2668 5.80319 17.2364 5.96491C17.206 6.12663 17.1435 6.28064 17.0525 6.41781C16.9616 6.55497 16.8442 6.67253 16.7071 6.76355C16.57 6.85457 16.4161 6.91723 16.2544 6.94778C12.5169 7.70994 9.15741 9.74002 6.74466 12.6944C4.33191 15.6489 3.01403 19.3461 3.01403 23.1605C3.01403 26.975 4.33191 30.6723 6.74466 33.6267C9.15741 36.5811 12.5169 38.6112 16.2544 39.3734C16.5486 39.4427 16.8076 39.6164 16.9835 39.8622C17.1594 40.108 17.2402 40.4092 17.211 40.71C17.1817 41.0108 17.0444 41.2909 16.8245 41.4982C16.6045 41.7055 16.3168 41.826 16.0148 41.8374V41.8203Z" fill="#38BCEA"/>
<path d="M16.0146 35.3693C15.7507 35.3659 15.4941 35.2824 15.2788 35.1298C12.4723 33.1101 10.4574 30.1755 9.58075 26.8308C9.51413 26.568 9.5349 26.2905 9.63986 26.0405C9.74481 25.7905 9.92829 25.5814 10.1626 25.4448C10.5056 25.1673 10.7822 24.8166 10.9723 24.4184C11.1623 24.0202 11.261 23.5846 11.261 23.1434C11.261 22.7022 11.1623 22.2665 10.9723 21.8683C10.7822 21.4701 10.5056 21.1194 10.1626 20.8419C9.92829 20.7054 9.74481 20.4963 9.63986 20.2462C9.5349 19.9962 9.51413 19.7188 9.58075 19.4559C10.4574 16.1113 12.4723 13.1767 15.2788 11.157C15.4099 11.0437 15.5632 10.9588 15.7289 10.9079C15.8946 10.857 16.0692 10.8412 16.2413 10.8614C16.4135 10.8816 16.5796 10.9374 16.729 11.0253C16.8784 11.1132 17.0079 11.2312 17.1093 11.3719C17.2106 11.5125 17.2815 11.6727 17.3175 11.8423C17.3536 12.0119 17.3539 12.1871 17.3186 12.3568C17.2832 12.5265 17.2129 12.687 17.1121 12.8281C17.0113 12.9691 16.8823 13.0877 16.7332 13.1761C14.6275 14.6952 13.0531 16.8384 12.233 19.302C13.2099 20.3425 13.7536 21.7161 13.7536 23.1434C13.7536 24.5707 13.2099 25.9443 12.233 26.9848C13.0531 29.4484 14.6275 31.5915 16.7332 33.1106C16.9977 33.2997 17.1767 33.5857 17.2312 33.9063C17.2856 34.2268 17.2112 34.5558 17.0241 34.8217C16.9119 34.9871 16.7617 35.1231 16.586 35.2184C16.4103 35.3137 16.2144 35.3654 16.0146 35.3693Z" fill="#38BCEA"/>
<path d="M9.58109 28.1142C8.56055 28.2933 7.50964 28.154 6.57097 27.7153C5.63231 27.2765 4.8514 26.5595 4.33427 25.6617C3.81715 24.7638 3.58884 23.7285 3.68039 22.6964C3.77193 21.6643 4.17889 20.6854 4.84597 19.8926C5.51305 19.0997 6.40796 18.5314 7.40919 18.2647C8.41043 17.998 9.46946 18.0459 10.4425 18.4018C11.4156 18.7578 12.2556 19.4045 12.8484 20.2543C13.4413 21.1041 13.7582 22.1158 13.7562 23.152C13.8514 24.3617 13.4668 25.5602 12.6856 26.4887C11.9044 27.4172 10.7892 28.0011 9.58109 28.1142ZM9.58109 20.6708C8.6742 20.6708 7.86997 21.8002 7.86997 23.152C7.86997 24.5038 8.63998 25.616 9.58109 25.616C10.5222 25.616 11.2922 24.4866 11.2922 23.152C11.2922 21.8173 10.488 20.6708 9.58109 20.6708Z" fill="#38BCEA"/>
</svg>
