<svg width="68" height="62" viewBox="0 0 68 62" fill="none" xmlns="http://www.w3.org/2000/svg">
<path d="M40.2886 15.331C40.1947 15.3466 40.0989 15.3466 40.005 15.331C37.465 14.6749 35.1073 13.4501 33.11 11.7492C32.9958 11.6539 32.9023 11.5364 32.8353 11.4036C32.7683 11.2709 32.7291 11.1259 32.7202 10.9775C32.7113 10.8291 32.7329 10.6804 32.7837 10.5406C32.8344 10.4008 32.9132 10.2729 33.0152 10.1648C33.1173 10.0566 33.2404 9.9705 33.377 9.91171C33.5135 9.85291 33.6607 9.82271 33.8094 9.82294C33.9581 9.82317 34.1051 9.85382 34.2415 9.91303C34.3779 9.97224 34.5008 10.0587 34.6025 10.1672C36.3529 11.5825 38.3897 12.6009 40.5721 13.152C40.8213 13.2255 41.0361 13.3857 41.1777 13.6036C41.3192 13.8216 41.3781 14.0829 41.3439 14.3405C41.3097 14.5981 41.1845 14.835 40.991 15.0084C40.7975 15.1818 40.5484 15.2803 40.2886 15.2862V15.331Z" fill="#38BCEA"/>
<path d="M43.9447 61.8196C43.5666 61.8214 43.1899 61.7712 42.8254 61.6703C41.8479 61.3608 40.9988 60.7392 40.4085 59.9008C39.8181 59.0625 39.519 58.0536 39.5571 57.0289V51.0593C39.66 49.4352 39.1196 47.836 38.0528 46.6072C36.986 45.3784 35.4784 44.6188 33.856 44.4927C30.722 44.4927 28.155 47.4775 28.155 51.0593V57.0289C28.1931 58.0536 27.894 59.0625 27.3036 59.9008C26.7132 60.7392 25.8642 61.3608 24.8866 61.6703C23.9972 61.9131 23.0522 61.8527 22.2009 61.4987C21.3496 61.1447 20.6405 60.5172 20.1855 59.7153C11.4699 45.612 11.4102 24.0765 11.4102 23.1661C11.4102 14.2116 17.9171 6.92865 25.9164 6.92865C28.7803 6.93403 31.5656 7.86594 33.856 9.58514C36.1475 7.86786 38.9321 6.93616 41.7957 6.92865C49.795 6.92865 56.3019 14.2116 56.3019 23.1661C56.3019 24.0765 56.3019 45.5523 47.5265 59.7153C47.1625 60.3459 46.6412 60.8713 46.0134 61.2401C45.3856 61.609 44.6728 61.8086 43.9447 61.8196ZM33.856 42.254C38.1989 42.254 41.736 46.1791 41.736 50.9996V56.9692C41.6917 57.52 41.8339 58.0697 42.1398 58.5299C42.4456 58.99 42.8974 59.334 43.4224 59.5063C43.8557 59.6267 44.3174 59.5927 44.7284 59.4103C45.1395 59.228 45.4744 58.9084 45.676 58.5064C54.0633 44.9404 54.123 23.3153 54.123 23.1064C54.123 15.3458 48.5861 9.04787 41.7957 9.04787C39.1386 9.05939 36.5725 10.017 34.5575 11.7491C34.3586 11.909 34.1112 11.9962 33.856 11.9962C33.6009 11.9962 33.3534 11.909 33.1546 11.7491C31.1396 10.017 28.5735 9.05939 25.9164 9.04787C19.1259 9.04787 13.5891 15.3458 13.5891 23.1064C13.5891 23.3153 13.5891 44.9404 22.0361 58.5064C22.2398 58.9065 22.575 59.2243 22.9854 59.4064C23.3958 59.5884 23.8563 59.6237 24.2897 59.5063C24.8175 59.3367 25.2726 58.9939 25.5813 58.5335C25.8901 58.073 26.0344 57.5219 25.991 56.9692V50.9996C25.991 46.1343 29.5131 42.2093 33.856 42.2093V42.254Z" fill="#38BCEA"/>
<path d="M33.856 34.4638C22.3047 34.4638 0.470703 32.9714 0.470703 27.4196C0.470703 26.5241 0.470703 23.808 12.41 21.8827C12.5505 21.8572 12.6946 21.8604 12.8338 21.8919C12.9731 21.9235 13.1044 21.9829 13.2201 22.0666C13.3358 22.1502 13.4334 22.2563 13.5071 22.3786C13.5807 22.5009 13.6289 22.6368 13.6487 22.7782C13.6962 23.0632 13.6285 23.3553 13.4606 23.5904C13.2927 23.8255 13.0382 23.9843 12.7533 24.0318C4.41067 25.375 2.70932 27.0166 2.70932 27.4196C2.70932 29.0762 13.7382 32.2849 33.9306 32.2849C54.1229 32.2849 65.1518 29.0762 65.1518 27.4196C65.1518 27.0465 63.4505 25.375 55.1079 24.0318C54.9652 24.01 54.8283 23.9601 54.7051 23.885C54.5819 23.8098 54.4748 23.711 54.3901 23.5941C54.3054 23.4772 54.2448 23.3447 54.2118 23.2042C54.1787 23.0637 54.1739 22.9181 54.1977 22.7757C54.2214 22.6334 54.2732 22.4971 54.35 22.3749C54.4268 22.2528 54.5271 22.147 54.6451 22.064C54.7632 21.9809 54.8965 21.9221 55.0374 21.891C55.1784 21.8598 55.3241 21.8571 55.4661 21.8827C67.3308 23.808 67.3308 26.5241 67.3308 27.4196C67.2562 32.9863 45.4072 34.4638 33.856 34.4638Z" fill="#38BCEA"/>
<path d="M12.0965 49.2235C11.7587 49.2423 11.4206 49.1924 11.1026 49.077C10.7845 48.9616 10.4931 48.783 10.2459 48.552C9.27586 47.5819 8.52966 45.4925 13.2308 38.4633C13.3063 38.3376 13.4065 38.2285 13.5253 38.1425C13.644 38.0565 13.7789 37.9954 13.9219 37.9628C14.0648 37.9301 14.2129 37.9267 14.3572 37.9527C14.5015 37.9786 14.6391 38.0335 14.7617 38.1139C14.8843 38.1943 14.9894 38.2986 15.0707 38.4206C15.1521 38.5426 15.208 38.6797 15.235 38.8238C15.2621 38.9679 15.2598 39.116 15.2282 39.2592C15.1967 39.4024 15.1366 39.5378 15.0515 39.6572C11.5443 44.9403 11.6189 46.8058 11.8279 47.0148C12.992 48.1938 23.0658 42.6719 37.3481 28.3895C51.6305 14.1071 57.1375 4.03331 55.9734 2.86922C55.6899 2.58567 52.7349 2.74983 44.5416 9.00304C44.3124 9.14969 44.0366 9.20528 43.7685 9.15885C43.5004 9.11242 43.2593 8.96732 43.0928 8.75213C42.9263 8.53695 42.8463 8.26725 42.8686 7.99607C42.8909 7.72488 43.0139 7.47186 43.2133 7.28677C54.69 -1.48861 56.8092 0.630615 57.5106 1.31712C61.4506 5.25709 47.0637 21.7333 38.8853 29.9117C31.6173 37.135 17.9169 49.2235 12.0965 49.2235Z" fill="#38BCEA"/>
<path d="M55.5851 49.2833C53.9882 49.2833 51.2869 48.3132 46.4217 44.9702C40.1467 40.4735 34.2744 35.44 28.8709 29.9267C23.3665 24.5202 18.3337 18.6536 13.8274 12.3908C8.48453 4.61538 9.21582 2.36183 10.2456 1.33206C10.947 0.630629 13.0662 -1.4886 24.5429 7.30171C24.6703 7.38324 24.7793 7.49041 24.8631 7.6164C24.9468 7.74239 25.0034 7.88443 25.0292 8.03348C25.055 8.18253 25.0495 8.33534 25.013 8.48214C24.9765 8.62895 24.9099 8.76656 24.8173 8.88619C24.7247 9.00582 24.6082 9.10486 24.4753 9.177C24.3423 9.24914 24.1958 9.29278 24.045 9.30518C23.8942 9.31758 23.7426 9.29845 23.5996 9.249C23.4566 9.19956 23.3255 9.12087 23.2146 9.01798C15.0362 2.76477 12.0812 2.58568 11.7828 2.88416C11.4843 3.18264 11.5141 5.21233 15.6183 11.1671C20.0493 17.3271 25.0025 23.0942 30.423 28.4044C44.7054 42.6868 54.7642 48.2087 55.9283 47.0297C56.1373 46.8208 56.2119 44.9553 52.7196 39.6721C52.621 39.5545 52.5483 39.4174 52.5063 39.2697C52.4643 39.1221 52.4541 38.9672 52.4762 38.8153C52.4982 38.6634 52.5522 38.5178 52.6344 38.3882C52.7167 38.2586 52.8254 38.1478 52.9534 38.0632C53.0815 37.9785 53.226 37.9219 53.3775 37.8969C53.5289 37.872 53.684 37.8794 53.8324 37.9186C53.9808 37.9578 54.1193 38.0279 54.2387 38.1243C54.3582 38.2208 54.4559 38.3414 54.5254 38.4782C59.1818 45.5075 58.4356 47.5968 57.5103 48.5669C57.2604 48.8187 56.9589 49.0131 56.6264 49.1368C56.294 49.2605 55.9387 49.3105 55.5851 49.2833Z" fill="#38BCEA"/>
</svg>
