<svg width="65" height="44" viewBox="0 0 65 44" fill="none" xmlns="http://www.w3.org/2000/svg">
<path d="M21.0387 18.2267H11.416C10.31 18.2274 9.24684 17.7991 8.45033 17.0318C7.65382 16.2645 7.18606 15.218 7.14551 14.1128V13.8281C7.14551 6.71067 11.2024 0.803223 16.1846 0.803223C21.1668 0.803223 25.238 6.65373 25.238 13.8281V14.1128C25.198 15.2058 24.7402 16.2419 23.9589 17.0073C23.1776 17.7727 22.1323 18.2092 21.0387 18.2267ZM16.2273 2.8815C12.3839 2.8815 9.2665 7.79252 9.2665 13.8281V14.0843C9.28504 14.6407 9.5201 15.1678 9.92161 15.5533C10.3231 15.9389 10.8593 16.1524 11.416 16.1484H21.0387C21.5967 16.1525 22.1345 15.9395 22.5383 15.5543C22.9421 15.1691 23.1802 14.6419 23.2024 14.0843V13.8281C23.2024 7.79252 20.0992 2.8815 16.2273 2.8815Z" fill="#38BCEA"/>
<path d="M17.8647 14.0274H14.605C14.0902 14.0275 13.5963 13.8239 13.231 13.4613C12.8657 13.0986 12.6585 12.6062 12.6548 12.0915V8.8317C12.6585 8.31563 12.8652 7.82179 13.2301 7.45687C13.595 7.09194 14.0889 6.88526 14.605 6.88153H17.8647C18.3795 6.88529 18.8719 7.09241 19.2345 7.45774C19.5972 7.82306 19.8007 8.31694 19.8007 8.8317V12.0915C19.8007 12.6049 19.5967 13.0973 19.2337 13.4604C18.8706 13.8235 18.3782 14.0274 17.8647 14.0274ZM14.7331 11.9491H17.7224V8.95985H14.7331V11.9491Z" fill="#38BCEA"/>
<path d="M16.2271 8.95968C15.9515 8.95968 15.6872 8.85016 15.4923 8.65529C15.2975 8.46041 15.188 8.19612 15.188 7.92052V6.73905C15.188 6.46345 15.2975 6.19912 15.4923 6.00424C15.6872 5.80936 15.9515 5.69989 16.2271 5.69989C16.5027 5.69989 16.767 5.80936 16.9619 6.00424C17.1568 6.19912 17.2663 6.46345 17.2663 6.73905V7.96322C17.2552 8.23135 17.1409 8.4848 16.9472 8.67054C16.7535 8.85627 16.4955 8.95991 16.2271 8.95968Z" fill="#38BCEA"/>
<path d="M16.2271 14.7818C15.9515 14.7818 15.6872 14.6723 15.4923 14.4774C15.2975 14.2826 15.188 14.0182 15.188 13.7426V12.9882C15.188 12.7126 15.2975 12.4483 15.4923 12.2534C15.6872 12.0586 15.9515 11.949 16.2271 11.949C16.5027 11.949 16.767 12.0586 16.9619 12.2534C17.1568 12.4483 17.2663 12.7126 17.2663 12.9882V13.7426C17.2663 14.0182 17.1568 14.2826 16.9619 14.4774C16.767 14.6723 16.5027 14.7818 16.2271 14.7818Z" fill="#38BCEA"/>
<path d="M37.0529 18.2267H27.4301C26.3241 18.2274 25.261 17.7991 24.4645 17.0318C23.668 16.2645 23.2002 15.218 23.1597 14.1128V13.8281C23.1597 6.71067 27.2166 0.803223 32.1988 0.803223C37.181 0.803223 41.2521 6.65373 41.2521 13.8281V14.127C41.2086 15.2175 40.7492 16.2501 39.9683 17.0125C39.1873 17.7749 38.1441 18.2093 37.0529 18.2267ZM32.2415 2.8815C28.3981 2.8815 25.2807 7.79252 25.2807 13.8281V14.0843C25.2992 14.6407 25.5343 15.1678 25.9358 15.5533C26.3373 15.9389 26.8735 16.1524 27.4301 16.1484H37.0529C37.6109 16.1525 38.1487 15.9395 38.5525 15.5543C38.9563 15.1691 39.1944 14.6419 39.2166 14.0843V13.8281C39.2166 7.79252 36.0849 2.8815 32.2415 2.8815Z" fill="#38BCEA"/>
<path d="M33.8786 14.0274H30.6188C30.361 14.0331 30.1046 13.9873 29.8648 13.8925C29.625 13.7978 29.4065 13.6561 29.2222 13.4757C29.0379 13.2954 28.8914 13.08 28.7915 12.8423C28.6915 12.6046 28.6401 12.3494 28.6401 12.0915V8.8317C28.6401 8.31694 28.8436 7.82306 29.2063 7.45774C29.5689 7.09241 30.0613 6.88529 30.5761 6.88153H33.8359C34.3481 6.88901 34.8369 7.09777 35.1965 7.46269C35.5561 7.82761 35.7576 8.31937 35.7576 8.8317V12.0915C35.7578 12.5952 35.5616 13.0792 35.2108 13.4407C34.86 13.8022 34.3821 14.0126 33.8786 14.0274ZM30.7469 11.9491H33.7362V8.95985H30.7469V11.9491Z" fill="#38BCEA"/>
<path d="M32.2413 8.95968C31.9657 8.95968 31.7014 8.85016 31.5065 8.65529C31.3116 8.46041 31.2021 8.19612 31.2021 7.92052V6.73905C31.2021 6.46345 31.3116 6.19912 31.5065 6.00424C31.7014 5.80936 31.9657 5.69989 32.2413 5.69989C32.5169 5.69989 32.7812 5.80936 32.9761 6.00424C33.171 6.19912 33.2804 6.46345 33.2804 6.73905V7.96322C33.2694 8.23135 33.1551 8.4848 32.9614 8.67054C32.7677 8.85627 32.5096 8.95991 32.2413 8.95968Z" fill="#38BCEA"/>
<path d="M32.2413 14.7818C31.9657 14.7818 31.7014 14.6723 31.5065 14.4774C31.3116 14.2826 31.2021 14.0182 31.2021 13.7426V12.9882C31.2021 12.7126 31.3116 12.4483 31.5065 12.2534C31.7014 12.0586 31.9657 11.949 32.2413 11.949C32.5169 11.949 32.7812 12.0586 32.9761 12.2534C33.171 12.4483 33.2804 12.7126 33.2804 12.9882V13.7426C33.2804 14.0182 33.171 14.2826 32.9761 14.4774C32.7812 14.6723 32.5169 14.7818 32.2413 14.7818Z" fill="#38BCEA"/>
<path d="M53.067 18.2267H43.4443C42.3383 18.2274 41.2752 17.7991 40.4787 17.0318C39.6821 16.2645 39.2144 15.218 39.1738 14.1128V13.8281C39.1738 6.71067 43.2308 0.803223 48.2129 0.803223C53.1951 0.803223 57.2663 6.65373 57.2663 13.8281V14.127C57.2228 15.2175 56.7634 16.2501 55.9824 17.0125C55.2015 17.7749 54.1583 18.2093 53.067 18.2267ZM48.2557 2.8815C44.4122 2.8815 41.2948 7.79252 41.2948 13.8281V14.0843C41.3134 14.6407 41.5484 15.1678 41.9499 15.5533C42.3514 15.9389 42.8876 16.1524 43.4443 16.1484H53.067C53.6251 16.1525 54.1628 15.9395 54.5666 15.5543C54.9704 15.1691 55.2086 14.6419 55.2307 14.0843V13.8281C55.2307 7.79252 52.0991 2.8815 48.2557 2.8815Z" fill="#38BCEA"/>
<path d="M49.8925 14.0274H46.6327C46.1193 14.0274 45.6269 13.8235 45.2638 13.4604C44.9007 13.0973 44.6968 12.6049 44.6968 12.0915V8.8317C44.6968 8.31694 44.9003 7.82306 45.2629 7.45774C45.6256 7.09241 46.118 6.88529 46.6327 6.88153H49.8925C50.4072 6.88529 50.8996 7.09241 51.2623 7.45774C51.6249 7.82306 51.8284 8.31694 51.8284 8.8317V12.0915C51.8284 12.6049 51.6245 13.0973 51.2614 13.4604C50.8983 13.8235 50.4059 14.0274 49.8925 14.0274ZM46.7608 11.9491H49.7501V8.95985H46.7608V11.9491Z" fill="#38BCEA"/>
<path d="M48.2559 8.95968C47.9803 8.95968 47.716 8.85016 47.5211 8.65529C47.3263 8.46041 47.2168 8.19612 47.2168 7.92052V6.73905C47.2168 6.46345 47.3263 6.19912 47.5211 6.00424C47.716 5.80936 47.9803 5.69989 48.2559 5.69989C48.5315 5.69989 48.7958 5.80936 48.9907 6.00424C49.1856 6.19912 49.2951 6.46345 49.2951 6.73905V7.96322C49.2841 8.23135 49.1697 8.4848 48.976 8.67054C48.7823 8.85627 48.5243 8.95991 48.2559 8.95968Z" fill="#38BCEA"/>
<path d="M48.2559 14.7818C47.9803 14.7818 47.716 14.6723 47.5211 14.4774C47.3263 14.2826 47.2168 14.0182 47.2168 13.7426V12.9882C47.2168 12.7126 47.3263 12.4483 47.5211 12.2534C47.716 12.0586 47.9803 11.949 48.2559 11.949C48.5315 11.949 48.7958 12.0586 48.9907 12.2534C49.1856 12.4483 49.2951 12.7126 49.2951 12.9882V13.7426C49.2951 14.0182 49.1856 14.2826 48.9907 14.4774C48.7958 14.6723 48.5315 14.7818 48.2559 14.7818Z" fill="#38BCEA"/>
<path d="M34.7754 11.4794C34.5042 11.4756 34.2447 11.3687 34.0494 11.1805C33.8513 10.9849 33.7387 10.7187 33.7363 10.4403V9.01678H30.747V10.4403C30.7425 10.7155 30.636 10.9794 30.448 11.1805C30.3497 11.2798 30.232 11.3576 30.1021 11.409C29.9723 11.4605 29.8332 11.4844 29.6936 11.4794C25.8502 11.4794 22.1349 11.2659 18.6758 10.9954C18.4153 10.974 18.1724 10.8551 17.9956 10.6625C17.8189 10.4699 17.7212 10.2177 17.7221 9.95629V8.95987H14.7328V9.45806C14.736 9.60533 14.7074 9.75159 14.649 9.88682C14.5906 10.0221 14.5037 10.1431 14.3942 10.2417C14.2848 10.3404 14.1554 10.4142 14.0149 10.4583C13.8743 10.5024 13.7259 10.5157 13.5797 10.4972C0.0566406 8.86021 0.0566406 6.34066 0.0566406 5.40116C0.0863851 5.14833 0.207907 4.91519 0.398143 4.74603C0.58838 4.57686 0.834091 4.48342 1.08866 4.48342C1.34324 4.48342 1.58896 4.57686 1.7792 4.74603C1.96943 4.91519 2.09095 5.14833 2.1207 5.40116C2.36269 5.88515 4.6972 7.28016 12.7399 8.33354C12.8521 7.92487 13.0952 7.56429 13.4321 7.30715C13.7689 7.05001 14.1809 6.91052 14.6046 6.91005H17.8644C18.3792 6.91381 18.8716 7.12094 19.2342 7.48626C19.5969 7.85158 19.8004 8.34546 19.8004 8.86022V9.03103C22.6473 9.23032 25.5939 9.35842 28.6829 9.41536V8.86022C28.6829 8.34546 28.8864 7.85158 29.2491 7.48626C29.6117 7.12094 30.1041 6.91381 30.6188 6.91005H33.8786C34.3785 6.92826 34.8523 7.13785 35.202 7.49551C35.5517 7.85318 35.7506 8.33154 35.7576 8.83172V9.3869C38.8323 9.3869 41.8217 9.20186 44.6402 9.00258V8.83172C44.6401 8.31696 44.8437 7.82308 45.2063 7.45776C45.569 7.09244 46.0613 6.88531 46.5761 6.88156H49.8359C50.2591 6.88437 50.6699 7.02478 51.0062 7.28156C51.3426 7.53835 51.5864 7.89757 51.7006 8.30504C59.8287 7.23743 62.1205 5.82821 62.3198 5.35846C62.3198 5.22453 62.3464 5.09192 62.3981 4.96836C62.4498 4.8448 62.5255 4.73276 62.6209 4.63873C62.7162 4.54469 62.8293 4.47051 62.9536 4.42056C63.0779 4.37062 63.2108 4.34587 63.3447 4.34776C63.4831 4.34961 63.6197 4.37872 63.7468 4.43338C63.8739 4.48804 63.989 4.56722 64.0855 4.66635C64.182 4.76549 64.258 4.88267 64.3092 5.01119C64.3604 5.13971 64.3858 5.27703 64.3839 5.41537C64.3839 6.35487 64.3839 8.87446 50.8608 10.5115C50.7144 10.5274 50.5663 10.5124 50.426 10.4676C50.2858 10.4227 50.1564 10.349 50.0465 10.251C49.9365 10.1531 49.8482 10.0332 49.7874 9.89907C49.7267 9.76494 49.6947 9.61957 49.6935 9.47231V8.97408H46.7042V9.97054C46.7051 10.232 46.6074 10.4841 46.4306 10.6767C46.2539 10.8693 46.011 10.9882 45.7505 11.0097C42.2914 11.2802 38.6331 11.4367 34.7327 11.4937L34.7754 11.4794Z" fill="#38BCEA"/>
<path d="M16.2271 43.5505C11.2449 43.5505 7.18799 37.7 7.18799 30.5256V30.2409C7.22854 29.1357 7.6963 28.0893 8.49281 27.322C9.28932 26.5547 10.3525 26.1263 11.4584 26.1271H21.0812C22.1848 26.1262 23.2459 26.5526 24.042 27.3168C24.8382 28.0811 25.3075 29.124 25.3516 30.2267V30.5256C25.2805 37.7 21.2235 43.5505 16.2271 43.5505ZM11.4157 28.2054C10.8591 28.2013 10.3229 28.4149 9.92139 28.8004C9.51988 29.186 9.28481 29.7131 9.26627 30.2694V30.5256C9.26627 36.5612 12.3837 41.4722 16.2271 41.4722C20.0705 41.4722 23.2022 36.5612 23.2022 30.5256V30.2694C23.18 29.7118 22.9419 29.1846 22.5381 28.7995C22.1343 28.4143 21.5965 28.2012 21.0385 28.2054H11.4157Z" fill="#38BCEA"/>
<path d="M17.8647 37.4579H14.605C14.0902 37.4579 13.5963 37.2544 13.231 36.8917C12.8657 36.5291 12.6585 36.0367 12.6548 35.5219V32.2622C12.6585 31.7474 12.8657 31.2551 13.231 30.8924C13.5963 30.5297 14.0902 30.3262 14.605 30.3262H17.8647C18.3782 30.3262 18.8706 30.5302 19.2337 30.8933C19.5967 31.2563 19.8007 31.7488 19.8007 32.2622V35.5219C19.8007 36.0354 19.5967 36.5278 19.2337 36.8909C18.8706 37.2539 18.3782 37.4579 17.8647 37.4579ZM14.7331 35.3938H17.7224V32.4046H14.7331V35.3938Z" fill="#38BCEA"/>
<path d="M16.2274 38.6535C16.0909 38.6535 15.9558 38.6266 15.8297 38.5744C15.7037 38.5222 15.5891 38.4456 15.4926 38.3491C15.3961 38.2526 15.3196 38.1381 15.2674 38.012C15.2151 37.8859 15.1883 37.7508 15.1883 37.6143V36.4329C15.1711 36.2872 15.185 36.1395 15.2291 35.9995C15.2731 35.8596 15.3463 35.7305 15.4438 35.6209C15.5413 35.5113 15.6609 35.4235 15.7947 35.3635C15.9285 35.3034 16.0736 35.2723 16.2203 35.2723C16.367 35.2723 16.512 35.3034 16.6459 35.3635C16.7797 35.4235 16.8993 35.5113 16.9968 35.6209C17.0943 35.7305 17.1675 35.8596 17.2115 35.9995C17.2556 36.1395 17.2695 36.2872 17.2523 36.4329V37.6143C17.2523 37.8875 17.1448 38.1497 16.953 38.3441C16.7612 38.5386 16.5005 38.6497 16.2274 38.6535Z" fill="#38BCEA"/>
<path d="M16.2271 32.4045C15.9515 32.4045 15.6872 32.295 15.4923 32.1001C15.2975 31.9053 15.188 31.641 15.188 31.3654V30.6109C15.188 30.4745 15.2149 30.3393 15.2671 30.2133C15.3193 30.0872 15.3958 29.9726 15.4923 29.8761C15.5888 29.7796 15.7034 29.7031 15.8295 29.6509C15.9555 29.5987 16.0907 29.5718 16.2271 29.5718C16.3636 29.5718 16.4987 29.5987 16.6248 29.6509C16.7509 29.7031 16.8654 29.7796 16.9619 29.8761C17.0584 29.9726 17.1349 30.0872 17.1872 30.2133C17.2394 30.3393 17.2663 30.4745 17.2663 30.6109V31.3654C17.2663 31.641 17.1568 31.9053 16.9619 32.1001C16.767 32.295 16.5027 32.4045 16.2271 32.4045Z" fill="#38BCEA"/>
<path d="M32.2413 43.5505C27.2591 43.5505 23.2021 37.7 23.2021 30.5256V30.2409C23.2427 29.1357 23.7105 28.0893 24.507 27.322C25.3035 26.5547 26.3666 26.1263 27.4726 26.1271H37.0954C38.199 26.1262 39.2601 26.5526 40.0562 27.3168C40.8523 28.0811 41.3217 29.124 41.3658 30.2267V30.5256C41.2946 37.7 37.1808 43.5505 32.2413 43.5505ZM27.4299 28.2054C26.8733 28.2013 26.3371 28.4149 25.9355 28.8004C25.534 29.186 25.299 29.7131 25.2804 30.2694V30.5256C25.2804 36.5612 28.3979 41.4722 32.2413 41.4722C36.0847 41.4722 39.2163 36.5612 39.2163 30.5256V30.2694C39.1942 29.7118 38.956 29.1846 38.5522 28.7995C38.1485 28.4143 37.6107 28.2012 37.0527 28.2054H27.4299Z" fill="#38BCEA"/>
<path d="M33.8786 37.4579H30.6188C30.361 37.4636 30.1046 37.4177 29.8648 37.323C29.625 37.2282 29.4065 37.0865 29.2222 36.9062C29.0379 36.7259 28.8914 36.5105 28.7915 36.2728C28.6915 36.0351 28.6401 35.7798 28.6401 35.5219V32.2622C28.6401 31.7488 28.8441 31.2563 29.2072 30.8933C29.5702 30.5302 30.0626 30.3262 30.5761 30.3262H33.8359C34.3468 30.33 34.8356 30.5356 35.1956 30.8983C35.5556 31.2609 35.7576 31.7512 35.7576 32.2622V35.5219C35.7578 36.0257 35.5616 36.5097 35.2108 36.8711C34.86 37.2326 34.3821 37.4431 33.8786 37.4579ZM30.7469 35.3938H33.7362V32.4046H30.7469V35.3938Z" fill="#38BCEA"/>
<path d="M32.2413 38.6537C32.1048 38.6537 31.9697 38.6268 31.8436 38.5746C31.7175 38.5224 31.603 38.4459 31.5065 38.3494C31.41 38.2529 31.3335 38.1383 31.2812 38.0122C31.229 37.8861 31.2021 37.751 31.2021 37.6146V36.4331C31.2021 36.2966 31.229 36.1615 31.2812 36.0354C31.3335 35.9093 31.41 35.7948 31.5065 35.6983C31.603 35.6018 31.7175 35.5252 31.8436 35.473C31.9697 35.4208 32.1048 35.3939 32.2413 35.3939C32.3777 35.3939 32.5129 35.4208 32.6389 35.473C32.765 35.5252 32.8796 35.6018 32.9761 35.6983C33.0726 35.7948 33.1491 35.9093 33.2013 36.0354C33.2535 36.1615 33.2804 36.2966 33.2804 36.4331V37.6146C33.2804 37.751 33.2535 37.8861 33.2013 38.0122C33.1491 38.1383 33.0726 38.2529 32.9761 38.3494C32.8796 38.4459 32.765 38.5224 32.6389 38.5746C32.5129 38.6268 32.3777 38.6537 32.2413 38.6537Z" fill="#38BCEA"/>
<path d="M32.2413 32.4045C31.9657 32.4045 31.7014 32.295 31.5065 32.1001C31.3116 31.9053 31.2021 31.641 31.2021 31.3654V30.6109C31.2021 30.4745 31.229 30.3393 31.2812 30.2133C31.3335 30.0872 31.41 29.9726 31.5065 29.8761C31.603 29.7796 31.7175 29.7031 31.8436 29.6509C31.9697 29.5987 32.1048 29.5718 32.2413 29.5718C32.3777 29.5718 32.5129 29.5987 32.6389 29.6509C32.765 29.7031 32.8796 29.7796 32.9761 29.8761C33.0726 29.9726 33.1491 30.0872 33.2013 30.2133C33.2535 30.3393 33.2804 30.4745 33.2804 30.6109V31.3654C33.2804 31.641 33.171 31.9053 32.9761 32.1001C32.7812 32.295 32.5169 32.4045 32.2413 32.4045Z" fill="#38BCEA"/>
<path d="M48.2554 43.5505C43.2732 43.5505 39.2163 37.7 39.2163 30.5256V30.2267C39.2605 29.124 39.7298 28.0811 40.5259 27.3168C41.3221 26.5526 42.3832 26.1262 43.4868 26.1271H53.1095C54.2131 26.1262 55.2742 26.5526 56.0704 27.3168C56.8665 28.0811 57.3358 29.124 57.38 30.2267V30.5256C57.3088 37.7 53.2519 43.5505 48.2554 43.5505ZM43.4441 28.2054C42.8874 28.2013 42.3512 28.4149 41.9497 28.8004C41.5482 29.186 41.3131 29.7131 41.2946 30.2694V30.5256C41.2946 36.5612 44.412 41.4722 48.2554 41.4722C52.0988 41.4722 55.2305 36.5612 55.2305 30.5256V30.2694C55.2083 29.7118 54.9702 29.1846 54.5664 28.7995C54.1626 28.4143 53.6248 28.2012 53.0668 28.2054H43.4441Z" fill="#38BCEA"/>
<path d="M49.8925 37.4579H46.6327C46.1193 37.4579 45.6269 37.2539 45.2638 36.8909C44.9007 36.5278 44.6968 36.0354 44.6968 35.5219V32.2622C44.6968 31.7488 44.9007 31.2563 45.2638 30.8933C45.6269 30.5302 46.1193 30.3262 46.6327 30.3262H49.8925C50.4059 30.3262 50.8983 30.5302 51.2614 30.8933C51.6245 31.2563 51.8284 31.7488 51.8284 32.2622V35.5219C51.8284 36.0354 51.6245 36.5278 51.2614 36.8909C50.8983 37.2539 50.4059 37.4579 49.8925 37.4579ZM46.7608 35.3938H49.7501V32.4046H46.7608V35.3938Z" fill="#38BCEA"/>
<path d="M48.2559 38.6537C48.1195 38.6537 47.9843 38.6268 47.8583 38.5746C47.7322 38.5224 47.6176 38.4459 47.5211 38.3494C47.4247 38.2529 47.3481 38.1383 47.2959 38.0122C47.2437 37.8861 47.2168 37.751 47.2168 37.6146V36.4331C47.2168 36.1575 47.3263 35.8932 47.5211 35.6983C47.716 35.5034 47.9803 35.3939 48.2559 35.3939C48.5315 35.3939 48.7958 35.5034 48.9907 35.6983C49.1856 35.8932 49.2951 36.1575 49.2951 36.4331V37.6146C49.2951 37.751 49.2682 37.8861 49.216 38.0122C49.1638 38.1383 49.0872 38.2529 48.9907 38.3494C48.8942 38.4459 48.7797 38.5224 48.6536 38.5746C48.5275 38.6268 48.3924 38.6537 48.2559 38.6537Z" fill="#38BCEA"/>
<path d="M48.2559 32.4045C47.9803 32.4045 47.716 32.295 47.5211 32.1001C47.3263 31.9053 47.2168 31.641 47.2168 31.3654V30.6109C47.2168 30.3353 47.3263 30.071 47.5211 29.8761C47.716 29.6812 47.9803 29.5718 48.2559 29.5718C48.5315 29.5718 48.7958 29.6812 48.9907 29.8761C49.1856 30.071 49.2951 30.3353 49.2951 30.6109V31.3654C49.2951 31.641 49.1856 31.9053 48.9907 32.1001C48.7958 32.295 48.5315 32.4045 48.2559 32.4045Z" fill="#38BCEA"/>
<path d="M1.08165 40.0202C0.804762 40.0127 0.541948 39.8965 0.350123 39.6967C0.158298 39.4969 0.0528986 39.2295 0.0567422 38.9526C0.0567422 38.0131 0.0567424 35.4935 13.5798 33.8565C13.726 33.8381 13.8744 33.8513 14.015 33.8954C14.1555 33.9395 14.2849 34.0134 14.3943 34.112C14.5038 34.2106 14.5907 34.3317 14.6491 34.4669C14.7075 34.6021 14.7361 34.7484 14.7329 34.8957V35.3939H17.7222V34.3974C17.7213 34.136 17.819 33.8839 17.9957 33.6913C18.1725 33.4987 18.4154 33.3798 18.6759 33.3583C22.135 33.0878 25.7933 32.9312 29.6937 32.8743C29.8333 32.8693 29.9724 32.8933 30.1022 32.9447C30.2321 32.9962 30.3498 33.074 30.4481 33.1732C30.6385 33.3728 30.7454 33.6376 30.7471 33.9135V35.337H33.7364V33.9135C33.7368 33.7755 33.7647 33.6389 33.8185 33.5119C33.8723 33.3848 33.9508 33.2696 34.0495 33.1732C34.1457 33.0751 34.261 32.9979 34.3884 32.9464C34.5158 32.895 34.6524 32.8704 34.7897 32.8743C38.6474 32.8743 42.3627 33.0878 45.8075 33.3583C46.0681 33.3798 46.3109 33.4987 46.4877 33.6913C46.6645 33.8839 46.7621 34.136 46.7613 34.3974V35.3939H49.7506V34.8957C49.7517 34.7484 49.7837 34.603 49.8445 34.4689C49.9053 34.3347 49.9935 34.2149 50.1035 34.1169C50.2135 34.019 50.3428 33.9452 50.483 33.9004C50.6233 33.8555 50.7714 33.8406 50.9178 33.8565C64.4409 35.4935 64.4409 38.0131 64.4409 38.9526C64.4409 39.2282 64.3314 39.4925 64.1366 39.6874C63.9417 39.8823 63.6774 39.9917 63.4018 39.9917C63.1262 39.9917 62.8619 39.8823 62.667 39.6874C62.4721 39.4925 62.3626 39.2282 62.3626 38.9526C62.1776 38.5398 59.8858 37.1305 51.7577 36.1056C51.6455 36.5143 51.4023 36.8748 51.0655 37.132C50.7286 37.3891 50.3167 37.5286 49.8929 37.5291H46.6331C46.1197 37.5291 45.6273 37.3251 45.2642 36.9621C44.9012 36.599 44.6972 36.1066 44.6972 35.5932V35.4224C41.8502 35.2231 38.9036 35.0949 35.8147 35.038V35.5932C35.8147 36.1066 35.6107 36.599 35.2476 36.9621C34.8846 37.3251 34.3922 37.5291 33.8787 37.5291H30.6189C30.355 37.5351 30.0927 37.4871 29.848 37.3879C29.6034 37.2888 29.3816 37.1407 29.1963 36.9527C29.0109 36.7648 28.866 36.5409 28.7704 36.2948C28.6748 36.0488 28.6305 35.7858 28.6403 35.522V35.0095C25.5513 35.0095 22.5763 35.1946 19.7578 35.3939V35.5647C19.7578 36.0782 19.5538 36.5705 19.1907 36.9336C18.8277 37.2966 18.3353 37.5006 17.8218 37.5006H14.6047C14.181 37.5002 13.769 37.3607 13.4322 37.1035C13.0953 36.8464 12.8522 36.4858 12.74 36.0771C4.6119 37.1448 2.30585 38.554 2.1208 39.0238C2.11897 39.1577 2.09051 39.29 2.03711 39.4128C1.98371 39.5357 1.90642 39.6467 1.80973 39.7394C1.71304 39.8321 1.59887 39.9047 1.47388 39.9529C1.34889 40.0011 1.21556 40.024 1.08165 40.0202Z" fill="#38BCEA"/>
</svg>
