<svg width="19" height="19" viewBox="0 0 19 19" fill="none" xmlns="http://www.w3.org/2000/svg">
<path d="M15.1647 15.9217C8.76859 15.9307 3.91431 11.0183 3.92115 4.67809C3.92115 4.26405 4.2568 3.92651 4.67085 3.92651H6.64957C7.0211 3.92651 7.33671 4.1995 7.39127 4.567C7.52202 5.4478 7.77846 6.30528 8.1528 7.11325L8.22984 7.27954C8.33696 7.51075 8.26435 7.78546 8.05698 7.93355C7.4442 8.37116 7.21001 9.25203 7.68739 9.93935C8.28646 10.8019 9.04161 11.5569 9.90393 12.1557C10.5912 12.6329 11.4719 12.3988 11.9095 11.7861C12.0577 11.5786 12.3326 11.506 12.564 11.6131L12.7295 11.6898C13.5375 12.0641 14.3951 12.3206 15.2759 12.4513C15.6434 12.5058 15.9163 12.8214 15.9163 13.193V15.172C15.9163 15.586 15.5798 15.9217 15.1658 15.9217L15.1647 15.9217Z" fill="#1A3444"/>
</svg>
