<svg width="61" height="62" viewBox="0 0 61 62" fill="none" xmlns="http://www.w3.org/2000/svg">
<path d="M11.9798 61.3756C11.3169 61.3688 10.6668 61.1926 10.0913 60.8637C9.51573 60.5349 9.03387 60.0642 8.69153 59.4966C5.5314 54.5286 5.11859 50.7279 4.64884 46.3294C4.52073 45.1194 4.37838 43.881 4.17909 42.5429C2.42616 39.8691 1.34228 36.8127 1.01896 33.6319C0.663086 29.9023 0.663086 27.4539 0.663086 27.3543C0.663086 19.454 6.58478 13.0341 13.8588 13.0341C14.1344 13.0341 14.3987 13.1435 14.5936 13.3384C14.7884 13.5333 14.8979 13.7976 14.8979 14.0732C14.8979 14.3488 14.7884 14.6131 14.5936 14.808C14.3987 15.0029 14.1344 15.1123 13.8588 15.1123C7.72357 15.1123 2.74136 20.607 2.74136 27.3543C2.74136 27.3543 2.74137 29.8169 3.083 33.4326C3.34633 36.3354 4.32443 39.1279 5.92997 41.5607C6.01686 41.6825 6.0708 41.8247 6.08656 41.9735C6.31431 43.397 6.45666 44.8204 6.59901 46.0731C7.05453 50.3436 7.42462 53.7884 10.3285 58.3578C10.5224 58.7077 10.8295 58.9815 11.1993 59.1341C11.5692 59.2867 11.9799 59.3091 12.3641 59.1976C12.8034 59.0482 13.1811 58.7579 13.4385 58.3718C13.6959 57.9857 13.8186 57.5254 13.7876 57.0624V51.7813C13.7112 50.7916 13.8402 49.7969 14.1665 48.8595C14.4928 47.922 15.0093 47.0622 15.6836 46.3338C16.3579 45.6054 17.1755 45.0243 18.0851 44.6269C18.9946 44.2294 19.9765 44.0242 20.9691 44.0242C21.9617 44.0242 22.9435 44.2294 23.8531 44.6269C24.7626 45.0243 25.5802 45.6054 26.2546 46.3338C26.9289 47.0622 27.4454 47.922 27.7717 48.8595C28.0979 49.7969 28.2269 50.7916 28.1506 51.7813V57.0624C28.1196 57.5254 28.2423 57.9857 28.4997 58.3718C28.7571 58.7579 29.1347 59.0482 29.574 59.1976C29.9584 59.3064 30.3681 59.2828 30.7374 59.1304C31.1066 58.9781 31.4138 58.7059 31.6096 58.3578C33.0659 56.1284 34.0942 53.6471 34.6416 51.0411C34.6965 50.7712 34.8563 50.5342 35.0858 50.382C35.3154 50.2299 35.5959 50.1751 35.8658 50.2297C36.1368 50.2879 36.3739 50.4505 36.5258 50.6823C36.6777 50.9141 36.7321 51.1965 36.6772 51.4681C36.0808 54.3208 34.9506 57.0351 33.3463 59.4681C32.9133 60.1968 32.2507 60.7613 31.4624 61.073C30.6741 61.3847 29.8047 61.426 28.9904 61.1905C28.1226 60.9077 27.3682 60.3542 26.8379 59.6113C26.3076 58.8684 26.0293 57.9751 26.0438 57.0624V51.7813C26.1195 51.0649 26.0438 50.3406 25.8215 49.6553C25.5992 48.9701 25.2352 48.3392 24.7534 47.8037C24.2715 47.2682 23.6824 46.84 23.0243 46.5469C22.3662 46.2538 21.6539 46.1023 20.9335 46.1023C20.2131 46.1023 19.5007 46.2538 18.8427 46.5469C18.1846 46.84 17.5955 47.2682 17.1136 47.8037C16.6317 48.3392 16.2678 48.9701 16.0455 49.6553C15.8232 50.3406 15.7475 51.0649 15.8232 51.7813V57.0624C15.8377 57.9751 15.5594 58.8684 15.0291 59.6113C14.4988 60.3542 13.7444 60.9077 12.8766 61.1905C12.5854 61.2851 12.2846 61.3472 11.9798 61.3756Z" fill="#38BCEA"/>
<path d="M59.4103 44.0659C59.231 44.0649 59.0549 44.0187 58.8982 43.9316C58.7414 43.8445 58.6092 43.7194 58.5135 43.5677L34.1862 2.89879C33.9927 2.58793 33.6868 2.36361 33.3321 2.27246C33.1553 2.22332 32.9702 2.21186 32.7888 2.23883C32.6073 2.26581 32.4335 2.33059 32.2787 2.42902C32.1211 2.5206 31.9842 2.64374 31.8764 2.79071C31.7686 2.93768 31.6924 3.10531 31.6524 3.28312C31.6041 3.45997 31.5931 3.64494 31.6201 3.82626C31.647 4.00759 31.7113 4.18135 31.809 4.33653L52.9904 39.7386C53.1142 39.9736 53.1432 40.247 53.0717 40.5028C53.0001 40.7586 52.8334 40.9772 52.6056 41.1138C52.3779 41.2505 52.1065 41.2947 51.8471 41.2375C51.5878 41.1803 51.3602 41.026 51.2111 40.8062L30.0154 5.38989C29.546 4.60259 29.4082 3.66116 29.6324 2.77238C29.8566 1.88359 30.4244 1.12011 31.2111 0.649664C31.6001 0.412497 32.0324 0.254893 32.4828 0.185928C32.9332 0.116964 33.3928 0.138033 33.835 0.247919C34.2772 0.357805 34.6931 0.554309 35.0589 0.826079C35.4246 1.09785 35.7328 1.43949 35.9656 1.83118L60.2929 42.5001C60.3647 42.6165 60.4125 42.746 60.4334 42.8812C60.4544 43.0163 60.4481 43.1542 60.4149 43.2868C60.3818 43.4195 60.3224 43.5442 60.2403 43.6535C60.1582 43.7629 60.0551 43.8547 59.937 43.9236C59.777 44.0165 59.5954 44.0656 59.4103 44.0659Z" fill="#38BCEA"/>
<path d="M36.1791 48.1086C36.0172 48.1099 35.8574 48.0716 35.7135 47.9972C35.5696 47.9228 35.4461 47.8144 35.3535 47.6815C35.2433 47.5373 35.1734 47.3665 35.1509 47.1864C35.1284 47.0063 35.1541 46.8235 35.2254 46.6566C38.3286 39.3541 30.414 34.0445 30.0724 33.8453C29.9344 33.758 29.8195 33.6386 29.7377 33.4973C29.6559 33.356 29.6096 33.197 29.6027 33.0339C29.5954 32.8693 29.6263 32.7053 29.693 32.5546C29.7596 32.404 29.8603 32.2708 29.987 32.1656C32.108 30.4716 32.1507 28.8916 31.9229 27.9948C24.2788 30.9983 17.3322 24.0802 17.0333 23.7243C16.9004 23.596 16.8046 23.4342 16.7562 23.256C16.7077 23.0777 16.7082 22.8897 16.7578 22.7118C16.8074 22.5338 16.9042 22.3726 17.0379 22.2451C17.1715 22.1177 17.3372 22.0287 17.5173 21.9877C22.2005 20.8062 24.0653 19.5962 24.8055 18.8417C19.6667 17.9022 16.6489 10.7991 16.5208 10.4717C16.4405 10.2843 16.4179 10.0771 16.456 9.8768C16.494 9.67647 16.5909 9.49206 16.7343 9.34712C16.8704 9.19964 17.0485 9.09737 17.2444 9.05411C17.4404 9.01084 17.6449 9.02864 17.8304 9.10511C18.1009 9.19051 24.5066 11.4396 31.5671 6.08733C31.7855 5.93411 32.0539 5.86949 32.3181 5.90648C32.5823 5.94347 32.8226 6.07933 32.9905 6.28664C33.1471 6.50387 33.2138 6.77317 33.1767 7.03839C33.1396 7.3036 33.0015 7.54424 32.7912 7.71012C30.9215 9.21499 28.7688 10.3293 26.4606 10.987C24.1524 11.6448 21.7357 11.8326 19.3536 11.5393C20.6347 13.7457 23.0831 17.0482 26.1863 16.8204C26.4177 16.8066 26.6471 16.8705 26.8379 17.0021C27.0288 17.1336 27.1702 17.3252 27.2397 17.5464C27.3135 17.8524 27.3251 18.1701 27.2738 18.4806C27.2224 18.7912 27.1092 19.0883 26.9407 19.3542C26.0582 20.9343 23.6952 22.3008 19.8945 23.4396C22.229 25.219 27.1116 28.0517 31.9372 25.6175C32.1574 25.5011 32.4129 25.4701 32.6546 25.5306C32.8964 25.591 33.1072 25.7385 33.2468 25.9449C33.9093 27.0303 34.1683 28.3144 33.9783 29.5717C33.7883 30.8291 33.1614 31.9793 32.2076 32.8204C34.414 34.6424 39.2112 39.4111 37.688 45.6317C40.6774 44.8915 46.8837 42.6424 49.0759 36.4645C49.1692 36.2064 49.3607 35.9958 49.6087 35.8784C49.8567 35.7611 50.1411 35.7466 50.3998 35.8381C50.6588 35.9344 50.8697 36.1287 50.9868 36.379C51.104 36.6293 51.1181 36.9156 51.0261 37.1762C47.6382 46.6139 36.6916 47.9662 36.2218 48.0231L36.1791 48.1086Z" fill="#38BCEA"/>
<path d="M8.76299 25.2616C8.62719 25.2616 8.49274 25.2346 8.36745 25.1822C8.24217 25.1299 8.12853 25.0531 8.03317 24.9564C7.93781 24.8597 7.86263 24.7451 7.81197 24.6191C7.76131 24.4931 7.73619 24.3583 7.73808 24.2225V23.0552C7.72093 22.9095 7.73483 22.7618 7.77887 22.6219C7.82291 22.482 7.89609 22.3529 7.99358 22.2433C8.09107 22.1336 8.21065 22.0459 8.34449 21.9858C8.47833 21.9257 8.62338 21.8947 8.77009 21.8947C8.9168 21.8947 9.06184 21.9257 9.19568 21.9858C9.32952 22.0459 9.44913 22.1336 9.54662 22.2433C9.64411 22.3529 9.71727 22.482 9.76131 22.6219C9.80535 22.7618 9.81927 22.9095 9.80212 23.0552V24.2225C9.80404 24.3595 9.77847 24.4954 9.72693 24.6224C9.67538 24.7493 9.59891 24.8646 9.50203 24.9615C9.40515 25.0584 9.28985 25.1349 9.16291 25.1864C9.03597 25.238 8.89998 25.2635 8.76299 25.2616Z" fill="#38BCEA"/>
<path d="M8.76299 31.1406C8.62719 31.1407 8.49274 31.1137 8.36745 31.0613C8.24217 31.0089 8.12853 30.9321 8.03317 30.8354C7.93781 30.7387 7.86263 30.6241 7.81197 30.4981C7.76131 30.3721 7.73619 30.2373 7.73808 30.1015V28.9343C7.72093 28.7886 7.73483 28.6409 7.77887 28.5009C7.82291 28.361 7.89609 28.2319 7.99358 28.1223C8.09107 28.0127 8.21065 27.9249 8.34449 27.8648C8.47833 27.8047 8.62338 27.7737 8.77009 27.7737C8.9168 27.7737 9.06184 27.8047 9.19568 27.8648C9.32952 27.9249 9.44913 28.0127 9.54662 28.1223C9.64411 28.2319 9.71727 28.361 9.76131 28.5009C9.80535 28.6409 9.81927 28.7886 9.80212 28.9343V30.1015C9.80404 30.2385 9.77847 30.3745 9.72693 30.5014C9.67538 30.6283 9.59891 30.7437 9.50203 30.8405C9.40515 30.9374 9.28985 31.0139 9.16291 31.0654C9.03597 31.117 8.89998 31.1426 8.76299 31.1406Z" fill="#38BCEA"/>
<path d="M12.2927 27.6104H11.1254C10.9797 27.6275 10.832 27.6136 10.6921 27.5696C10.5521 27.5256 10.4231 27.4524 10.3135 27.3549C10.2038 27.2574 10.1161 27.1378 10.056 27.004C9.99592 26.8702 9.96484 26.7251 9.96484 26.5784C9.96484 26.4317 9.99592 26.2866 10.056 26.1528C10.1161 26.019 10.2038 25.8993 10.3135 25.8018C10.4231 25.7044 10.5521 25.6312 10.6921 25.5872C10.832 25.5431 10.9797 25.5292 11.1254 25.5464H12.2927C12.4384 25.5292 12.586 25.5431 12.726 25.5872C12.8659 25.6312 12.995 25.7044 13.1046 25.8018C13.2142 25.8993 13.302 26.019 13.3621 26.1528C13.4221 26.2866 13.4532 26.4317 13.4532 26.5784C13.4532 26.7251 13.4221 26.8702 13.3621 27.004C13.302 27.1378 13.2142 27.2574 13.1046 27.3549C12.995 27.4524 12.8659 27.5256 12.726 27.5696C12.586 27.6136 12.4384 27.6275 12.2927 27.6104Z" fill="#38BCEA"/>
<path d="M6.41423 27.6104H5.24698C5.10128 27.6275 4.9536 27.6136 4.81365 27.5696C4.67371 27.5256 4.54467 27.4524 4.43504 27.3549C4.32541 27.2574 4.23765 27.1378 4.17757 27.004C4.11748 26.8702 4.08643 26.7251 4.08643 26.5784C4.08643 26.4317 4.11748 26.2866 4.17757 26.1528C4.23765 26.019 4.32541 25.8993 4.43504 25.8018C4.54467 25.7044 4.67371 25.6312 4.81365 25.5872C4.9536 25.5431 5.10128 25.5292 5.24698 25.5464H6.41423C6.55993 25.5292 6.70761 25.5431 6.84755 25.5872C6.9875 25.6312 7.11653 25.7044 7.22617 25.8018C7.3358 25.8993 7.42356 26.019 7.48364 26.1528C7.54373 26.2866 7.57478 26.4317 7.57478 26.5784C7.57478 26.7251 7.54373 26.8702 7.48364 27.004C7.42356 27.1378 7.3358 27.2574 7.22617 27.3549C7.11653 27.4524 6.9875 27.5256 6.84755 27.5696C6.70761 27.6136 6.55993 27.6275 6.41423 27.6104Z" fill="#38BCEA"/>
</svg>
