<svg width="78" height="79" viewBox="0 0 78 79" fill="none" xmlns="http://www.w3.org/2000/svg">
<path d="M56.916 27.5484C56.6879 27.5502 56.4634 27.4911 56.2657 27.3773C54.254 26.1735 52.5356 24.5368 51.235 22.5862C51.1518 22.4447 51.0972 22.2881 51.0745 22.1255C51.0518 21.9629 51.0614 21.7973 51.1027 21.6384C51.144 21.4795 51.2163 21.3303 51.3153 21.1993C51.4144 21.0683 51.5383 20.9581 51.68 20.8751C51.8191 20.7864 51.975 20.727 52.1379 20.7005C52.3008 20.674 52.4674 20.681 52.6275 20.721C52.7876 20.7611 52.9379 20.8333 53.0692 20.9333C53.2005 21.0334 53.31 21.1591 53.3911 21.3029C54.4884 22.9016 55.9185 24.2441 57.5833 25.2384C57.8637 25.4118 58.0641 25.6889 58.1411 26.0094C58.218 26.3299 58.1651 26.6679 57.9939 26.9496C57.8855 27.1378 57.7278 27.2929 57.5379 27.3984C57.3481 27.5039 57.1331 27.5558 56.916 27.5484Z" fill="#38BCEA"/>
<path d="M49.3697 67.5885C48.6564 67.5812 47.9585 67.3801 47.3506 67.0067C46.5557 66.4696 45.9582 65.6873 45.6493 64.7791C45.3403 63.8708 45.3369 62.8865 45.6395 61.9761L47.0939 56.8427C47.5219 55.465 47.4244 53.9776 46.8201 52.6676C46.5647 52.0986 46.1894 51.5914 45.7199 51.1809C45.2503 50.7704 44.6975 50.4662 44.0995 50.2892C43.4974 50.1241 42.8672 50.089 42.2505 50.1864C41.6339 50.2837 41.0451 50.5113 40.5232 50.8538C39.3086 51.6523 38.4312 52.8709 38.0592 54.2761L36.6048 59.4094C36.3721 60.3424 35.8389 61.1729 35.0875 61.7728C34.3361 62.3727 33.4081 62.7087 32.4468 62.729C31.572 62.7261 30.7236 62.4292 30.0378 61.8862C29.352 61.3431 28.8686 60.5853 28.6652 59.7345C24.7296 45.6691 29.9315 27.4116 30.1539 26.6416C32.3783 18.9415 39.7874 14.3044 46.6832 16.3749C49.0843 17.072 51.2041 18.5091 52.7406 20.4815C55.095 19.633 57.6561 19.5432 60.0642 20.2249C61.7521 20.7284 63.3126 21.5876 64.6408 22.7446C65.9689 23.9015 67.0339 25.3295 67.7642 26.9324C69.336 30.3396 69.6098 34.2033 68.5342 37.798C68.3117 38.568 63.0073 56.7914 52.193 66.5961C51.4111 67.2717 50.4024 67.6263 49.3697 67.5885ZM42.9017 47.6711C43.521 47.6711 44.1372 47.7575 44.7326 47.9278C45.6709 48.2074 46.5384 48.6851 47.2763 49.3286C48.0143 49.9721 48.6056 50.7665 49.0104 51.658C49.8853 53.5087 50.0438 55.6179 49.4553 57.5785L47.9837 62.7118C47.8349 63.106 47.8214 63.5385 47.9453 63.9412C48.0692 64.3439 48.3235 64.6939 48.6681 64.9363C48.9443 65.083 49.2608 65.1357 49.5696 65.0863C49.8784 65.0369 50.1627 64.8881 50.3793 64.6625C60.6459 55.3198 65.9504 37.2847 66.0017 37.028C66.9082 34.018 66.6831 30.7804 65.3686 27.9249C64.7926 26.6394 63.9453 25.4937 62.885 24.5663C61.8247 23.639 60.5764 22.9518 59.2257 22.552C57.051 21.9396 54.7299 22.1154 52.6721 23.0482C52.4035 23.1631 52.1035 23.1816 51.8228 23.1005C51.5421 23.0194 51.2981 22.8438 51.1322 22.6033C49.9231 20.7128 48.0879 19.3077 45.9475 18.6335C40.3692 17.0251 34.3461 20.9093 32.4981 27.2918C32.4981 27.4629 27.3648 45.6349 31.0095 59.0158C31.0716 59.341 31.2429 59.6352 31.4949 59.8499C31.7469 60.0645 32.0646 60.1868 32.3955 60.1965C32.8066 60.1608 33.1953 59.9932 33.5036 59.7188C33.8119 59.4445 34.0234 59.0779 34.1066 58.6736L35.561 53.5403C36.111 51.5661 37.3649 49.8617 39.0859 48.7491C40.2456 48.028 41.5875 47.6539 42.953 47.6711H42.9017Z" fill="#38BCEA"/>
<path d="M41.4306 78.7106C37.5305 78.7762 33.6936 77.7211 30.3754 75.6708C27.0572 73.6204 24.3971 70.6608 22.711 67.1435C21.9422 65.3345 20.6646 63.7878 19.0334 62.6912C17.4022 61.5946 15.4876 60.9954 13.5223 60.9664H7.03715C6.862 60.987 6.68448 60.9702 6.51626 60.9173C6.34804 60.8644 6.19293 60.7764 6.06115 60.6592C5.92936 60.542 5.8239 60.3983 5.75167 60.2374C5.67944 60.0765 5.64209 59.9022 5.64209 59.7258C5.64209 59.5494 5.67944 59.3751 5.75167 59.2142C5.8239 59.0533 5.92936 58.9096 6.06115 58.7924C6.19293 58.6752 6.34804 58.5872 6.51626 58.5343C6.68448 58.4813 6.862 58.4646 7.03715 58.4852H13.5223C15.9674 58.5089 18.3528 59.2429 20.3883 60.5978C22.4237 61.9528 24.0214 63.8702 24.9867 66.1168C26.5295 69.1522 28.8823 71.7014 31.7847 73.482C34.687 75.2626 38.0256 76.205 41.4306 76.205C44.8356 76.205 48.1741 75.2626 51.0764 73.482C53.9788 71.7014 56.3316 69.1522 57.8744 66.1168C58.8379 63.8689 60.4352 61.9503 62.471 60.5951C64.5069 59.2399 66.8933 58.5067 69.3388 58.4852H75.824C75.9991 58.4646 76.1766 58.4813 76.3449 58.5343C76.5131 58.5872 76.6682 58.6752 76.8 58.7924C76.9318 58.9096 77.0372 59.0533 77.1095 59.2142C77.1817 59.3751 77.219 59.5494 77.219 59.7258C77.219 59.9022 77.1817 60.0765 77.1095 60.2374C77.0372 60.3983 76.9318 60.542 76.8 60.6592C76.6682 60.7764 76.5131 60.8644 76.3449 60.9173C76.1766 60.9702 75.9991 60.987 75.824 60.9664H69.3388C67.3741 61.007 65.4623 61.6106 63.8305 62.7056C62.1987 63.8005 60.9154 65.3408 60.133 67.1435C58.4515 70.6608 55.7949 73.6209 52.4793 75.6716C49.1636 77.7222 45.3286 78.7771 41.4306 78.7106Z" fill="#38BCEA"/>
<path d="M11.8623 35.6933C10.5818 35.6916 9.34103 35.248 8.34967 34.4374C7.35831 33.6269 6.67704 32.499 6.42093 31.2444L0.449161 1.65921C0.409301 1.49458 0.404301 1.32345 0.434488 1.15678C0.464674 0.990116 0.529368 0.831604 0.624435 0.691422C0.719501 0.551239 0.842848 0.432484 0.986522 0.34278C1.13019 0.253076 1.29103 0.194406 1.45871 0.170536C1.61954 0.135678 1.78571 0.133392 1.94743 0.163813C2.10915 0.194235 2.26316 0.256747 2.40033 0.347659C2.53749 0.438572 2.65505 0.556043 2.74607 0.693137C2.83709 0.830232 2.89972 0.984172 2.93027 1.14587L8.90207 30.7139C9.06313 31.5069 9.53141 32.2039 10.2047 32.6528C10.8779 33.1016 11.7015 33.2658 12.4954 33.1095C13.293 32.9424 13.9933 32.4694 14.4461 31.7919C14.8896 31.1157 15.0495 30.2921 14.891 29.499L11.1265 11.1046C11.085 10.7895 11.1652 10.4704 11.3507 10.2124C11.5362 9.95436 11.813 9.77672 12.1249 9.71566C12.4368 9.65459 12.7602 9.71469 13.0293 9.88372C13.2984 10.0527 13.493 10.318 13.5734 10.6254L17.3036 29.0541C17.448 29.7671 17.4497 30.5016 17.3088 31.2153C17.1678 31.9289 16.8869 32.6076 16.4823 33.2122C15.6661 34.4379 14.3996 35.2925 12.9574 35.5906C12.5963 35.6586 12.2297 35.693 11.8623 35.6933Z" fill="#38BCEA"/>
<path d="M25.5172 59.1527C25.3642 59.1771 25.2083 59.1771 25.0552 59.1527L11.5032 53.6601C11.344 53.5955 11.1999 53.4988 11.0797 53.3759C10.9596 53.2531 10.8661 53.1068 10.8051 52.9463C10.7441 52.7857 10.7168 52.6142 10.7251 52.4426C10.7333 52.271 10.7769 52.103 10.853 51.9489L13.7448 45.806L11.4861 34.6667C11.4205 34.3422 11.4864 34.005 11.6693 33.7291C11.8521 33.4532 12.1371 33.2611 12.4614 33.1951C12.6223 33.1603 12.7885 33.158 12.9502 33.1884C13.1119 33.2188 13.2659 33.2813 13.403 33.3723C13.5402 33.4632 13.6578 33.5806 13.7488 33.7177C13.8398 33.8548 13.9024 34.0088 13.933 34.1705L16.2772 45.7034C16.3308 45.9699 16.2947 46.2466 16.1746 46.4905L13.6763 51.8121L25.9793 56.8085C26.1429 56.8679 26.2924 56.9609 26.418 57.0815C26.5437 57.2021 26.6427 57.3477 26.7088 57.5088C26.7748 57.6699 26.8065 57.8431 26.8017 58.0172C26.7968 58.1912 26.7557 58.3624 26.6808 58.5196C26.5642 58.7223 26.3938 58.8887 26.1884 59.0005C25.983 59.1122 25.7507 59.1649 25.5172 59.1527Z" fill="#38BCEA"/>
<path d="M40.0265 33.6228C39.7755 33.6258 39.5295 33.552 39.3215 33.4113C39.1136 33.2707 38.9536 33.0698 38.863 32.8357L37.477 29.2595C37.3736 28.9778 37.3736 28.6685 37.477 28.3868L38.709 24.9646L36.1423 19.4034C36.0557 19.2531 36.0014 19.0864 35.9828 18.914C35.9642 18.7415 35.9817 18.567 36.0342 18.4017C36.0868 18.2364 36.1732 18.0838 36.2879 17.9537C36.4027 17.8236 36.5432 17.7189 36.7007 17.6461C36.8582 17.5733 37.0291 17.5342 37.2025 17.5311C37.3759 17.528 37.5481 17.5611 37.7081 17.6282C37.868 17.6953 38.0122 17.795 38.1315 17.921C38.2508 18.0469 38.3426 18.1963 38.401 18.3597L41.1901 24.3657C41.3093 24.6681 41.3093 25.0044 41.1901 25.3068L39.941 28.8317L41.173 31.8946C41.2872 32.2038 41.278 32.5451 41.1474 32.8477C41.0168 33.1503 40.7747 33.3911 40.4714 33.5201C40.3294 33.5773 40.1792 33.6119 40.0265 33.6228Z" fill="#38BCEA"/>
<path d="M43.0736 27.1205C42.9487 27.1372 42.8221 27.1372 42.6971 27.1205L39.6514 26.1623C39.3354 26.0601 39.0722 25.8378 38.9185 25.5433C38.7649 25.2488 38.7331 24.9058 38.83 24.5881C38.8785 24.4305 38.9581 24.2843 39.0641 24.1581C39.17 24.0318 39.3003 23.9281 39.4471 23.8531C39.5939 23.7781 39.7542 23.7334 39.9186 23.7215C40.0831 23.7096 40.2482 23.7308 40.4042 23.7839L43.45 24.7421C43.727 24.8375 43.9616 25.0272 44.1129 25.278C44.2642 25.5289 44.3225 25.8249 44.2777 26.1144C44.2328 26.4038 44.0877 26.6684 43.8676 26.8617C43.6475 27.055 43.3664 27.1648 43.0736 27.1719V27.1205Z" fill="#38BCEA"/>
</svg>
