<svg width="59" height="67" viewBox="0 0 59 67" fill="none" xmlns="http://www.w3.org/2000/svg">
<path d="M36.7564 9.9186H36.4712C33.6649 9.1866 31.0592 7.83248 28.8474 5.9566C28.7325 5.86085 28.6385 5.7426 28.5711 5.60914C28.5036 5.47569 28.4643 5.32983 28.4553 5.18058C28.4464 5.03132 28.4681 4.88183 28.5191 4.74128C28.5702 4.60073 28.6494 4.47212 28.752 4.36335C28.8546 4.25459 28.9784 4.16798 29.1158 4.10886C29.2531 4.04974 29.4011 4.01936 29.5506 4.01959C29.7001 4.01982 29.848 4.05066 29.9852 4.1102C30.1223 4.16974 30.2459 4.25672 30.3481 4.36579C32.2999 5.97373 34.579 7.13636 37.0265 7.77252C37.2771 7.84643 37.4931 8.00749 37.6354 8.22664C37.7777 8.44579 37.837 8.70859 37.8026 8.96762C37.7682 9.22665 37.6423 9.46484 37.4477 9.63922C37.2531 9.81361 37.0026 9.9127 36.7413 9.9186H36.7564Z" fill="#38BCEA"/>
<path d="M53.0999 25.6614H53.0248C52.7367 25.6384 52.4694 25.5025 52.281 25.2832C52.0927 25.064 51.9986 24.7792 52.0193 24.4908C52.2745 20.9791 52.2745 18.7129 52.2745 18.6829C52.2745 9.99353 46.0613 2.90995 38.4375 2.90995C35.4558 2.91336 32.5726 3.97728 30.3034 5.91147C30.1035 6.07225 29.8546 6.1599 29.598 6.1599C29.3415 6.1599 29.0926 6.07225 28.8927 5.91147C26.6235 3.97728 23.7402 2.91336 20.7586 2.90995C13.1347 2.90995 6.92158 9.99353 6.92158 18.6829C6.92158 18.6829 6.92159 20.844 7.16171 24.2057C7.18658 24.3563 7.1797 24.5104 7.14154 24.6582C7.10337 24.8059 7.03476 24.9441 6.94009 25.0638C6.84542 25.1835 6.72678 25.2821 6.59178 25.3533C6.45679 25.4245 6.30841 25.4667 6.15616 25.4772C6.00391 25.4877 5.85114 25.4662 5.70765 25.4142C5.56416 25.3623 5.43311 25.2809 5.32291 25.1753C5.2127 25.0697 5.12578 24.9423 5.06769 24.8012C5.0096 24.66 4.98164 24.5083 4.98559 24.3558C4.73047 20.919 4.73047 18.773 4.73047 18.6829C4.73047 8.77792 11.9191 0.673828 20.7586 0.673828C23.9537 0.68239 27.0583 1.73656 29.598 3.67534C32.1378 1.73656 35.2423 0.68239 38.4375 0.673828C47.2769 0.673828 54.4656 8.71789 54.4656 18.6829C54.4656 18.773 54.4656 21.0391 54.1954 24.6859C54.1626 24.9539 54.0333 25.2008 53.8316 25.3803C53.63 25.5599 53.3699 25.6598 53.0999 25.6614Z" fill="#38BCEA"/>
<path d="M40.8235 66.182C40.4179 66.1787 40.0143 66.1232 39.6229 66.0169C38.558 65.6827 37.632 65.0085 36.9869 64.0978C36.3417 63.187 36.013 62.0898 36.0511 60.9743V54.2659C36.0511 50.1539 33.1546 46.7621 29.5978 46.7621C26.041 46.7621 23.1446 50.0938 23.1446 54.2659V60.9743C23.1811 62.0874 22.8536 63.182 22.2117 64.092C21.5698 65.002 20.6486 65.6778 19.5878 66.0169C18.6193 66.2835 17.5895 66.2185 16.6621 65.8324C15.7348 65.4462 14.9632 64.761 14.4702 63.8858C9.15753 55.2865 6.77132 44.0158 5.72079 36.0918C5.69682 35.9392 5.70731 35.7832 5.75145 35.6352C5.7956 35.4871 5.87228 35.3509 5.97591 35.2363C6.07875 35.1185 6.20562 35.0241 6.34799 34.9594C6.49036 34.8946 6.64494 34.8611 6.80134 34.8611H52.3943C52.5507 34.8611 52.7053 34.8946 52.8477 34.9594C52.9901 35.0241 53.1169 35.1185 53.2197 35.2363C53.3452 35.3532 53.4397 35.4994 53.4947 35.6618C53.5497 35.8242 53.5635 35.9977 53.5349 36.1668C52.4844 44.1058 50.0982 55.3615 44.7855 63.9608C44.3755 64.6438 43.7943 65.2079 43.0994 65.5975C42.4046 65.987 41.6201 66.1885 40.8235 66.182ZM29.5978 44.6311C34.3702 44.6311 38.2422 48.9533 38.2422 54.2659V60.9743C38.1794 61.6237 38.34 62.275 38.6975 62.8207C39.0549 63.3665 39.5878 63.7739 40.2082 63.9758C40.7163 64.1177 41.2578 64.0803 41.7416 63.8698C42.2254 63.6593 42.6219 63.2887 42.8645 62.8203C47.712 54.9713 50.0231 44.8112 51.1337 37.1123H8.06197C9.17253 44.7361 11.4837 54.9713 16.3312 62.8203C16.5738 63.2887 16.9703 63.6593 17.4541 63.8698C17.9379 64.0803 18.4793 64.1177 18.9875 63.9758C19.6078 63.7739 20.1407 63.3665 20.4982 62.8207C20.8556 62.275 21.0162 61.6237 20.9535 60.9743V54.2659C20.9535 48.9833 24.8254 44.6611 29.5978 44.6611V44.6311Z" fill="#38BCEA"/>
<path d="M41.784 31.3343C41.5761 31.334 41.3726 31.2746 41.1972 31.163C41.0218 31.0514 40.8818 30.8922 40.7935 30.7039C39.7959 28.5771 38.2131 26.7785 36.2303 25.5186C34.2476 24.2586 31.9471 23.5895 29.5979 23.5895C27.2487 23.5895 24.9482 24.2586 22.9654 25.5186C20.9827 26.7785 19.3999 28.5771 18.4022 30.7039C18.2981 30.9212 18.1262 31.0988 17.9123 31.2098C17.6984 31.3208 17.4543 31.3592 17.2166 31.3192C12.6393 30.4938 4.97046 28.4978 4.97046 24.2957C4.97046 19.013 17.3667 16.2516 29.5979 16.2516C41.8291 16.2516 54.2253 19.013 54.2253 24.2957C54.2253 28.4978 46.5564 30.4938 41.9791 31.3192L41.784 31.3343ZM29.5979 21.3992C32.2152 21.4066 34.7825 22.1166 37.0317 23.455C39.2809 24.7935 41.1295 26.7112 42.3843 29.0081C49.0327 27.7174 52.0342 25.6614 52.0342 24.2957C52.0342 21.8495 43.4949 18.4428 29.5979 18.4428C15.7009 18.4428 7.08653 21.8495 7.08653 24.2957C7.08653 25.6764 10.088 27.7174 16.7364 29.0081C17.9974 26.7001 19.8578 24.775 22.1213 23.4359C24.3849 22.0968 26.9679 21.3932 29.5979 21.3992Z" fill="#38BCEA"/>
<path d="M43.0295 37.0671H16.0158C15.7293 37.0671 15.4544 36.9533 15.2518 36.7507C15.0492 36.548 14.9353 36.2732 14.9353 35.9866C14.9353 34.0729 15.3122 32.178 16.0446 30.41C16.7769 28.642 17.8503 27.0356 19.2034 25.6824C20.5566 24.3292 22.1631 23.2558 23.9311 22.5235C25.6991 21.7912 27.594 21.4142 29.5077 21.4142C31.4213 21.4142 33.3163 21.7912 35.0843 22.5235C36.8523 23.2558 38.4587 24.3292 39.8119 25.6824C41.165 27.0356 42.2384 28.642 42.9708 30.41C43.7031 32.178 44.08 34.0729 44.08 35.9866C44.0801 36.2681 43.9704 36.5384 43.7742 36.7402C43.578 36.942 43.3108 37.0593 43.0295 37.0671ZM17.1864 34.8911H41.8739C41.5897 31.8138 40.1664 28.9537 37.8829 26.8714C35.5994 24.7891 32.6205 23.6348 29.5302 23.6348C26.4398 23.6348 23.4609 24.7891 21.1775 26.8714C18.894 28.9537 17.4706 31.8138 17.1864 34.8911Z" fill="#38BCEA"/>
<path d="M53.8199 31.3342C53.6456 31.3319 53.474 31.2903 53.3181 31.2123C53.1621 31.1343 53.0258 31.0221 52.9194 30.884C52.7592 30.6495 52.6962 30.362 52.7438 30.082C52.7914 29.8021 52.9458 29.5515 53.1746 29.3832L56.7914 26.7869C57.0268 26.6472 57.306 26.6007 57.5741 26.6565C57.8421 26.7124 58.0795 26.8666 58.2395 27.0887C58.3995 27.3108 58.4705 27.5848 58.4386 27.8567C58.4067 28.1286 58.2741 28.3788 58.067 28.5578L54.4502 31.1541C54.2626 31.2754 54.0432 31.338 53.8199 31.3342Z" fill="#38BCEA"/>
<path d="M57.4217 35.2963C57.2082 35.2969 56.9993 35.2342 56.8214 35.1162L55.4407 34.2007C55.2226 34.0304 55.0771 33.7839 55.0333 33.5107C54.9896 33.2375 55.0508 32.9578 55.2047 32.7279C55.3586 32.498 55.5938 32.3348 55.8631 32.2711C56.1324 32.2075 56.4157 32.2481 56.6563 32.3848L58.022 33.3002C58.2227 33.426 58.3766 33.6141 58.4599 33.8358C58.5433 34.0575 58.5515 34.3004 58.4833 34.5273C58.415 34.7541 58.2742 34.9522 58.0824 35.0911C57.8906 35.2301 57.6585 35.3021 57.4217 35.2963Z" fill="#38BCEA"/>
<path d="M5.3757 31.3342C5.14924 31.3292 4.92956 31.256 4.74539 31.1241L1.12856 28.5278C0.921452 28.3487 0.788899 28.0986 0.756985 27.8267C0.725071 27.5548 0.796105 27.2808 0.956121 27.0587C1.11614 26.8365 1.35353 26.6824 1.62154 26.6265C1.88955 26.5706 2.16875 26.6172 2.40419 26.7569L6.02102 29.3532C6.24976 29.5215 6.40423 29.7721 6.45183 30.052C6.49942 30.332 6.43642 30.6195 6.27614 30.854C6.17283 30.9976 6.03793 31.1156 5.88181 31.1989C5.72569 31.2821 5.55254 31.3284 5.3757 31.3342Z" fill="#38BCEA"/>
<path d="M1.77381 35.2963C1.59324 35.2992 1.41484 35.2567 1.25492 35.1728C1.095 35.0889 0.958648 34.9663 0.858342 34.8161C0.702608 34.5762 0.646839 34.285 0.702922 34.0046C0.759004 33.7242 0.922511 33.4768 1.15851 33.3153L2.53921 32.3999C2.77977 32.2632 3.06314 32.2226 3.33241 32.2862C3.60168 32.3499 3.8369 32.513 3.99082 32.743C4.14474 32.9729 4.20596 33.2525 4.16218 33.5257C4.1184 33.7989 3.97287 34.0455 3.75482 34.2158L2.37412 35.1312C2.19455 35.244 1.98577 35.3014 1.77381 35.2963Z" fill="#38BCEA"/>
</svg>
