<svg width="59" height="67" viewBox="0 0 59 67" fill="none" xmlns="http://www.w3.org/2000/svg">
<path d="M37.0257 9.91884H36.7405C33.9342 9.18684 31.3285 7.83273 29.1167 5.95685C29.0018 5.8611 28.9078 5.74285 28.8403 5.60939C28.7729 5.47593 28.7335 5.33008 28.7246 5.18082C28.7157 5.03156 28.7374 4.88207 28.7884 4.74152C28.8395 4.60098 28.9187 4.47236 29.0213 4.3636C29.1239 4.25484 29.2477 4.16822 29.385 4.1091C29.5224 4.04998 29.6704 4.01961 29.8199 4.01984C29.9694 4.02007 30.1173 4.0509 30.2545 4.11044C30.3916 4.16998 30.5151 4.25696 30.6174 4.36604C32.5692 5.97397 34.8483 7.1366 37.2958 7.77276C37.5464 7.84668 37.7624 8.00774 37.9047 8.22689C38.047 8.44603 38.1063 8.70884 38.0719 8.96786C38.0375 9.22689 37.9116 9.46508 37.717 9.63947C37.5224 9.81385 37.2719 9.91294 37.0106 9.91884H37.0257Z" fill="#38BCEA"/>
<path d="M53.3694 25.6617H53.2944C53.0063 25.6387 52.7389 25.5027 52.5505 25.2835C52.3622 25.0642 52.2682 24.7794 52.2889 24.4911C52.544 20.9793 52.544 18.7132 52.544 18.6832C52.544 9.99377 46.3309 2.9102 38.707 2.9102C35.7253 2.9136 32.8421 3.97752 30.5729 5.91171C30.373 6.07249 30.1241 6.16014 29.8676 6.16014C29.611 6.16014 29.3621 6.07249 29.1622 5.91171C26.893 3.97752 24.0098 2.9136 21.0281 2.9102C13.4043 2.9102 7.19112 9.99377 7.19112 18.6832C7.19112 18.6832 7.19112 20.8442 7.43124 24.2059C7.45611 24.3565 7.44923 24.5106 7.41107 24.6584C7.37291 24.8062 7.30429 24.9443 7.20962 25.064C7.11495 25.1837 6.99631 25.2823 6.86131 25.3535C6.72632 25.4247 6.57794 25.4669 6.42569 25.4774C6.27344 25.4879 6.12067 25.4665 5.97718 25.4145C5.83369 25.3625 5.70264 25.2811 5.59244 25.1756C5.48223 25.07 5.39531 24.9425 5.33722 24.8014C5.27914 24.6603 5.25117 24.5086 5.25513 24.356C5 20.9193 5 18.7732 5 18.6832C5 8.77816 12.1886 0.674072 21.0281 0.674072C24.2233 0.682634 27.3278 1.73681 29.8676 3.67559C32.4073 1.73681 35.5118 0.682634 38.707 0.674072C47.5465 0.674072 54.7351 8.71813 54.7351 18.6832C54.7351 18.7732 54.7351 21.0393 54.465 24.6862C54.4321 24.9542 54.3028 25.201 54.1012 25.3806C53.8995 25.5601 53.6394 25.66 53.3694 25.6617Z" fill="#38BCEA"/>
<path d="M41.0933 66.1822C40.6876 66.1789 40.2841 66.1234 39.8927 66.0171C38.8277 65.6829 37.9018 65.0088 37.2567 64.098C36.6115 63.1872 36.2828 62.09 36.3209 60.9746V54.2662C36.3209 50.1541 33.4244 46.7624 29.8676 46.7624C26.3108 46.7624 23.4144 50.0941 23.4144 54.2662V60.9746C23.4509 62.0876 23.1234 63.1822 22.4815 64.0922C21.8396 65.0023 20.9183 65.6781 19.8576 66.0171C18.8891 66.2837 17.8592 66.2188 16.9319 65.8326C16.0046 65.4464 15.233 64.7612 14.74 63.886C9.4273 55.2867 7.04109 44.016 5.99056 36.092C5.9666 35.9394 5.97708 35.7834 6.02123 35.6354C6.06537 35.4874 6.14206 35.3511 6.24569 35.2366C6.34852 35.1187 6.47539 35.0243 6.61777 34.9596C6.76014 34.8949 6.91472 34.8614 7.07111 34.8614H52.6641C52.8205 34.8614 52.9751 34.8949 53.1175 34.9596C53.2598 35.0243 53.3867 35.1187 53.4895 35.2366C53.615 35.3535 53.7095 35.4997 53.7645 35.6621C53.8195 35.8245 53.8333 35.998 53.8047 36.1671C52.7542 44.1061 50.368 55.3617 45.0553 63.9611C44.6452 64.644 44.0641 65.2082 43.3692 65.5977C42.6743 65.9873 41.8899 66.1887 41.0933 66.1822ZM29.8676 44.6313C34.64 44.6313 38.512 48.9535 38.512 54.2662V60.9746C38.4492 61.6239 38.6098 62.2752 38.9673 62.821C39.3247 63.3667 39.8576 63.7742 40.478 63.9761C40.9861 64.1179 41.5276 64.0805 42.0114 63.87C42.4951 63.6596 42.8917 63.289 43.1343 62.8205C47.9818 54.9715 50.2929 44.8114 51.4035 37.1125H8.33174C9.4423 44.7364 11.7535 54.9715 16.6009 62.8205C16.8436 63.289 17.2401 63.6596 17.7239 63.87C18.2076 64.0805 18.7491 64.1179 19.2573 63.9761C19.8776 63.7742 20.4105 63.3667 20.768 62.821C21.1254 62.2752 21.286 61.6239 21.2232 60.9746V54.2662C21.2232 48.9835 25.0952 44.6613 29.8676 44.6613V44.6313Z" fill="#38BCEA"/>
<path d="M42.0533 31.3345C41.8454 31.3342 41.6419 31.2748 41.4665 31.1632C41.2911 31.0516 41.1511 30.8924 41.0628 30.7042C40.0651 28.5774 38.4823 26.7788 36.4996 25.5188C34.5169 24.2589 32.2163 23.5897 29.8672 23.5897C27.518 23.5897 25.2174 24.2589 23.2347 25.5188C21.252 26.7788 19.6692 28.5774 18.6715 30.7042C18.5674 30.9215 18.3954 31.099 18.1816 31.21C17.9677 31.321 17.7235 31.3594 17.4859 31.3195C12.9086 30.4941 5.23975 28.4981 5.23975 24.2959C5.23975 19.0133 17.636 16.2519 29.8672 16.2519C42.0983 16.2519 54.4946 19.0133 54.4946 24.2959C54.4946 28.4981 46.8257 30.4941 42.2484 31.3195L42.0533 31.3345ZM29.8672 21.3995C32.4845 21.4069 35.0518 22.1168 37.301 23.4553C39.5502 24.7937 41.3987 26.7115 42.6536 29.0083C49.302 27.7177 52.3035 25.6616 52.3035 24.2959C52.3035 21.8497 43.7642 18.443 29.8672 18.443C15.9702 18.443 7.35582 21.8497 7.35582 24.2959C7.35582 25.6766 10.3573 27.7177 17.0057 29.0083C18.2667 26.7003 20.127 24.7753 22.3906 23.4361C24.6542 22.097 27.2372 21.3934 29.8672 21.3995Z" fill="#38BCEA"/>
<path d="M43.2988 37.0674H16.2851C15.9986 37.0674 15.7237 36.9535 15.5211 36.7509C15.3184 36.5483 15.2046 36.2734 15.2046 35.9868C15.2046 34.0732 15.5815 32.1783 16.3139 30.4103C17.0462 28.6423 18.1196 27.0358 19.4727 25.6826C20.8259 24.3295 22.4323 23.2561 24.2003 22.5237C25.9683 21.7914 27.8633 21.4145 29.777 21.4145C31.6906 21.4145 33.5855 21.7914 35.3535 22.5237C37.1215 23.2561 38.728 24.3295 40.0811 25.6826C41.4343 27.0358 42.5077 28.6423 43.2401 30.4103C43.9724 32.1783 44.3493 34.0732 44.3493 35.9868C44.3494 36.2683 44.2397 36.5387 44.0435 36.7405C43.8473 36.9423 43.5801 37.0596 43.2988 37.0674ZM17.4557 34.8913H42.1432C41.859 31.814 40.4357 28.9539 38.1522 26.8716C35.8687 24.7893 32.8898 23.635 29.7995 23.635C26.7091 23.635 23.7302 24.7893 21.4467 26.8716C19.1633 28.9539 17.7399 31.814 17.4557 34.8913Z" fill="#38BCEA"/>
<path d="M54.0892 31.3344C53.9149 31.3322 53.7433 31.2905 53.5873 31.2126C53.4314 31.1346 53.2951 31.0223 53.1887 30.8842C53.0284 30.6498 52.9655 30.3623 53.0131 30.0823C53.0607 29.8023 53.2151 29.5518 53.4438 29.3835L57.0607 26.7872C57.2961 26.6474 57.5753 26.6009 57.8433 26.6568C58.1114 26.7126 58.3488 26.8668 58.5088 27.0889C58.6688 27.3111 58.7398 27.5851 58.7079 27.857C58.676 28.1289 58.5434 28.379 58.3363 28.558L54.7195 31.1544C54.5319 31.2756 54.3125 31.3383 54.0892 31.3344Z" fill="#38BCEA"/>
<path d="M57.6912 35.2965C57.4777 35.2971 57.2688 35.2344 57.0909 35.1164L55.7102 34.201C55.4922 34.0306 55.3466 33.7841 55.3029 33.5109C55.2591 33.2377 55.3203 32.9581 55.4742 32.7281C55.6281 32.4982 55.8633 32.335 56.1326 32.2714C56.4019 32.2077 56.6853 32.2483 56.9258 32.385L58.2915 33.3005C58.4923 33.4262 58.6461 33.6144 58.7295 33.8361C58.8128 34.0578 58.821 34.3007 58.7528 34.5275C58.6846 34.7543 58.5437 34.9524 58.3519 35.0914C58.1601 35.2303 57.928 35.3024 57.6912 35.2965Z" fill="#38BCEA"/>
<path d="M5.64523 31.3344C5.41877 31.3294 5.1991 31.2562 5.01492 31.1243L1.39809 28.528C1.19098 28.349 1.05843 28.0989 1.02652 27.827C0.994602 27.5551 1.06564 27.2811 1.22565 27.0589C1.38567 26.8368 1.62306 26.6826 1.89107 26.6267C2.15909 26.5709 2.43829 26.6174 2.67372 26.7571L6.29055 29.3534C6.51929 29.5217 6.67376 29.7723 6.72136 30.0523C6.76896 30.3322 6.70596 30.6198 6.54567 30.8542C6.44236 30.9978 6.30746 31.1158 6.15134 31.1991C5.99522 31.2824 5.82207 31.3287 5.64523 31.3344Z" fill="#38BCEA"/>
<path d="M2.04334 35.2966C1.86277 35.2994 1.68437 35.2569 1.52445 35.173C1.36453 35.0891 1.22818 34.9665 1.12787 34.8163C0.97214 34.5765 0.91637 34.2853 0.972453 34.0049C1.02854 33.7244 1.19204 33.4771 1.42804 33.3156L2.80874 32.4001C3.0493 32.2634 3.33267 32.2228 3.60194 32.2865C3.87121 32.3501 4.10643 32.5133 4.26035 32.7432C4.41427 32.9731 4.47549 33.2528 4.43171 33.526C4.38793 33.7992 4.2424 34.0457 4.02435 34.216L2.64365 35.1315C2.46408 35.2442 2.2553 35.3016 2.04334 35.2966Z" fill="#38BCEA"/>
</svg>
