<svg width="58" height="52" viewBox="0 0 58 52" fill="none" xmlns="http://www.w3.org/2000/svg">
<path d="M34.8951 36.1697C34.7347 36.1744 34.578 36.1207 34.4542 36.0187C34.3983 35.976 34.3531 35.9209 34.3222 35.8578C34.2912 35.7946 34.2754 35.7251 34.276 35.6548V15.9921L24.7384 35.8194C24.6834 35.925 24.5985 36.012 24.4943 36.0695C24.39 36.1269 24.2712 36.1523 24.1525 36.1425H23.9895C23.8708 36.1523 23.752 36.1269 23.6477 36.0695C23.5435 36.012 23.4586 35.925 23.4036 35.8194L13.9324 16.504V35.6563C13.932 35.7286 13.9157 35.7998 13.8846 35.8651C13.8536 35.9303 13.8086 35.9879 13.7527 36.0338C13.6305 36.139 13.4746 36.1969 13.3134 36.1969C13.1521 36.1969 12.9962 36.139 12.874 36.0338C12.8182 35.9879 12.7732 35.9303 12.7421 35.8651C12.7111 35.7998 12.6947 35.7286 12.6943 35.6563V13.8346C12.6966 13.7875 12.7079 13.7414 12.7276 13.6987C12.7621 13.5732 12.8398 13.4638 12.9469 13.3898C13.054 13.3158 13.1837 13.2819 13.3134 13.294C13.4322 13.2843 13.5512 13.3099 13.6554 13.3677C13.7596 13.4255 13.8445 13.5128 13.8992 13.6186L24.0544 34.3896L34.048 13.6443C34.1779 13.3756 34.3862 13.2971 34.7275 13.2971H34.8951C35.0605 13.2952 35.2211 13.3525 35.348 13.4586C35.4077 13.5024 35.4565 13.5593 35.4906 13.6251C35.5246 13.6908 35.543 13.7636 35.5443 13.8376V35.1445H37.2368V13.8346C37.2371 13.7622 37.2532 13.6908 37.284 13.6254C37.3148 13.5599 37.3595 13.502 37.415 13.4556L37.5947 13.294H37.8544C38.0165 13.2901 38.174 13.3478 38.2952 13.4556C38.3505 13.5022 38.395 13.5602 38.4258 13.6256C38.4565 13.691 38.4728 13.7623 38.4734 13.8346V35.6563C38.474 35.7266 38.4582 35.7961 38.4273 35.8593C38.3963 35.9224 38.3511 35.9775 38.2952 36.0202C38.2646 36.0464 38.2312 36.0692 38.1956 36.0881C38.0891 36.1399 37.9727 36.1677 37.8544 36.1697C37.7463 36.1781 37.6378 36.1781 37.5297 36.1697H34.8951Z" fill="#1A3444"/>
<path d="M44.7571 13.2065C44.9169 13.2027 45.0727 13.2563 45.1964 13.3575C45.2523 13.4001 45.2975 13.4552 45.3285 13.5184C45.3594 13.5815 45.3752 13.651 45.3746 13.7213C45.3743 13.7937 45.3582 13.8651 45.3274 13.9305C45.2966 13.996 45.2519 14.0539 45.1964 14.1003C45.0759 14.2082 44.9188 14.266 44.7571 14.2619H38.4746V35.2487C38.4768 35.3233 38.4617 35.3974 38.4306 35.4652C38.3994 35.5331 38.353 35.5928 38.2949 35.6397C38.1686 35.7357 38.0143 35.7877 37.8556 35.7877C37.6969 35.7877 37.5426 35.7357 37.4162 35.6397C37.3582 35.5928 37.3118 35.5331 37.2806 35.4652C37.2494 35.3974 37.2343 35.3233 37.2365 35.2487V13.7727C37.24 13.688 37.266 13.6059 37.3119 13.5347C37.3579 13.4636 37.422 13.406 37.4977 13.368C37.6247 13.2621 37.7853 13.2048 37.9507 13.2065H44.7571ZM40.0101 36.221C39.8466 36.2224 39.6872 36.1692 39.5572 36.07C39.4976 36.0298 39.4487 35.9756 39.4147 35.9122C39.3808 35.8488 39.3628 35.7781 39.3624 35.7062V24.1045C39.3636 24.0309 39.3818 23.9585 39.4156 23.893C39.4494 23.8275 39.4978 23.7708 39.5572 23.7271C39.6838 23.6205 39.8446 23.5632 40.0101 23.5655C40.1719 23.5606 40.3294 23.6185 40.4495 23.7271C40.5051 23.7731 40.5501 23.8307 40.5811 23.8959C40.6121 23.9611 40.6285 24.0323 40.6292 24.1045V35.143H44.7631C44.9249 35.1381 45.0824 35.1959 45.2025 35.3045C45.2579 35.3506 45.3026 35.4083 45.3334 35.4735C45.3642 35.5387 45.3803 35.6099 45.3806 35.682C45.3812 35.7523 45.3654 35.8218 45.3345 35.885C45.3036 35.9481 45.2584 36.0032 45.2025 36.0459C45.0788 36.1471 44.9229 36.2006 44.7631 36.1969L40.0101 36.221ZM46.4873 13.2608C48.4099 13.246 50.2983 13.769 51.9394 14.7707C53.5905 15.771 54.952 17.1851 55.8891 18.8729C56.8649 20.5955 57.37 22.5446 57.3537 24.5243C57.3537 26.5656 56.866 28.7986 55.8891 30.5244C54.9512 32.2113 53.5892 33.6243 51.9379 34.6236C50.2968 35.6253 48.4084 36.1482 46.4858 36.1334C46.326 36.1372 46.1702 36.0837 46.0465 35.9825C45.9908 35.9366 45.946 35.8789 45.9152 35.8137C45.8844 35.7484 45.8685 35.6772 45.8685 35.605C45.8685 35.5329 45.8844 35.4616 45.9152 35.3963C45.946 35.3311 45.9908 35.2734 46.0465 35.2275C46.1702 35.1263 46.326 35.0728 46.4858 35.0766C48.1879 35.0873 49.8582 34.6162 51.3037 33.7177C52.7807 32.8103 53.9896 31.5263 54.8066 29.9974C55.6627 28.4242 56.0915 26.3663 56.0915 24.5228C56.1045 22.7328 55.6624 20.969 54.8066 19.3968C53.9907 17.8678 52.7828 16.5834 51.3068 15.6751C49.8612 14.7765 48.1909 14.3054 46.4889 14.3162C46.3264 14.3198 46.169 14.2602 46.0495 14.1501C45.9939 14.1042 45.9491 14.0465 45.9183 13.9813C45.8875 13.9161 45.8714 13.8448 45.8713 13.7727C45.8707 13.7024 45.8865 13.6329 45.9175 13.5697C45.9484 13.5066 45.9936 13.4515 46.0495 13.4088C46.1716 13.3104 46.3245 13.258 46.4813 13.2608H46.4873Z" fill="#1A3444"/>
<path fill-rule="evenodd" clip-rule="evenodd" d="M41.7861 6.77156C41.9745 6.68229 42.1527 6.57295 42.3176 6.44544C42.3176 6.44544 42.1243 6.57226 41.7861 6.77156ZM27.0757 5.07148C15.6779 0.403047 8.39746 -2.80084 3.59465 3.56164C-0.395861 8.84609 -1.03603 17.1578 1.53523 28.0045C3.84529 37.755 8.66924 44.35 12.3804 47.9148C16.004 51.3874 20.7691 52.5953 23.9141 50.3864C25.4481 49.3068 26.3525 48.3103 27.7597 45.7179C28.541 44.2396 29.1402 42.672 29.5443 41.0495C29.5443 41.0495 24.7385 51.0734 19.2457 48.8765C13.7529 46.6797 7.53383 39.5986 4.9671 26.2183C3.17039 16.8558 4.28163 5.07148 9.63704 3.69903C14.9925 2.32659 22.1325 6.03929 27.0757 7.4057C32.019 8.7721 36.0019 9.19184 38.3361 8.36747C39.5327 7.94246 40.6875 7.40824 41.7861 6.77156C40.3925 7.47062 36.1046 8.77059 27.0757 5.07148Z" fill="#38BCEA"/>
<path fill-rule="evenodd" clip-rule="evenodd" d="M49.3214 3.01953C45.8986 0.6838 42.8215 0.781939 40.67 0.952552C36.6418 1.27113 33.3926 3.14937 33.3926 3.14937C33.3926 3.14937 40.3877 1.12316 45.4713 3.56156C49.9646 5.71158 50.2771 9.46655 50.2771 9.46655C50.2771 9.46655 51.2721 9.68397 52.782 10.5989C54.2209 11.4746 54.5606 11.9276 54.5606 11.9276C54.5606 11.9276 53.4478 5.81122 49.3214 3.01953Z" fill="#38BCEA"/>
</svg>
